solid OpenSCAD_Model
  facet normal 0 0 -1
    outer loop
      vertex 0 8 19.8
      vertex 1.6 12 19.8
      vertex 1.6 8 19.8
    endloop
  endfacet
  facet normal -0 0 -1
    outer loop
      vertex 1.6 12 19.8
      vertex 0 8 19.8
      vertex 0 12 19.8
    endloop
  endfacet
  facet normal 0 0 -1
    outer loop
      vertex 11 8 19.8
      vertex 12.6 12 19.8
      vertex 12.6 8 19.8
    endloop
  endfacet
  facet normal -0 0 -1
    outer loop
      vertex 12.6 12 19.8
      vertex 11 8 19.8
      vertex 11 12 19.8
    endloop
  endfacet
  facet normal 0 0 -1
    outer loop
      vertex 0 25.6 18.6
      vertex 1.6 26 18.6
      vertex 1.6 25.6 18.6
    endloop
  endfacet
  facet normal -0 0 -1
    outer loop
      vertex 1.6 26 18.6
      vertex 0 25.6 18.6
      vertex 0 26 18.6
    endloop
  endfacet
  facet normal 0 0 -1
    outer loop
      vertex 0 7.6 18.6
      vertex 1.6 8 18.6
      vertex 1.6 7.6 18.6
    endloop
  endfacet
  facet normal -0 0 -1
    outer loop
      vertex 1.6 8 18.6
      vertex 0 7.6 18.6
      vertex 0 8 18.6
    endloop
  endfacet
  facet normal 0 0 -1
    outer loop
      vertex 0 12 18.6
      vertex 1.6 21.6 18.6
      vertex 1.6 12 18.6
    endloop
  endfacet
  facet normal -0 0 -1
    outer loop
      vertex 1.6 21.6 18.6
      vertex 0 12 18.6
      vertex 0 21.6 18.6
    endloop
  endfacet
  facet normal -0 0 1
    outer loop
      vertex 11 12 18.6
      vertex 12.6 8 18.6
      vertex 12.6 12 18.6
    endloop
  endfacet
  facet normal 0 0 1
    outer loop
      vertex 12.6 8 18.6
      vertex 11 12 18.6
      vertex 11 8 18.6
    endloop
  endfacet
  facet normal -0 0 1
    outer loop
      vertex 11 25.6 18.6
      vertex 12.6 21.6 18.6
      vertex 12.6 25.6 18.6
    endloop
  endfacet
  facet normal 0 0 1
    outer loop
      vertex 12.6 21.6 18.6
      vertex 11 25.6 18.6
      vertex 11 21.6 18.6
    endloop
  endfacet
  facet normal 0 -1 0
    outer loop
      vertex 0 12 18.6
      vertex 1.6 12 19.8
      vertex 0 12 19.8
    endloop
  endfacet
  facet normal 0 -1 -0
    outer loop
      vertex 1.6 12 19.8
      vertex 0 12 18.6
      vertex 1.6 12 18.6
    endloop
  endfacet
  facet normal 0 -1 0
    outer loop
      vertex 11 12 18.6
      vertex 12.6 12 19.8
      vertex 11 12 19.8
    endloop
  endfacet
  facet normal 0 -1 -0
    outer loop
      vertex 12.6 12 19.8
      vertex 11 12 18.6
      vertex 12.6 12 18.6
    endloop
  endfacet
  facet normal 0 1 -0
    outer loop
      vertex 1.6 8 18.6
      vertex 0 8 19.8
      vertex 1.6 8 19.8
    endloop
  endfacet
  facet normal 0 1 0
    outer loop
      vertex 0 8 19.8
      vertex 1.6 8 18.6
      vertex 0 8 18.6
    endloop
  endfacet
  facet normal 0 1 -0
    outer loop
      vertex 12.6 8 18.6
      vertex 11 8 19.8
      vertex 12.6 8 19.8
    endloop
  endfacet
  facet normal 0 1 0
    outer loop
      vertex 11 8 19.8
      vertex 12.6 8 18.6
      vertex 11 8 18.6
    endloop
  endfacet
  facet normal 0 0 -1
    outer loop
      vertex 0 21.6 19.8
      vertex 1.6 25.6 19.8
      vertex 1.6 21.6 19.8
    endloop
  endfacet
  facet normal -0 0 -1
    outer loop
      vertex 1.6 25.6 19.8
      vertex 0 21.6 19.8
      vertex 0 25.6 19.8
    endloop
  endfacet
  facet normal 0 0 -1
    outer loop
      vertex 11 21.6 19.8
      vertex 12.6 25.6 19.8
      vertex 12.6 21.6 19.8
    endloop
  endfacet
  facet normal -0 0 -1
    outer loop
      vertex 12.6 25.6 19.8
      vertex 11 21.6 19.8
      vertex 11 25.6 19.8
    endloop
  endfacet
  facet normal 0 -1 0
    outer loop
      vertex 0 25.6 18.6
      vertex 1.6 25.6 19.8
      vertex 0 25.6 19.8
    endloop
  endfacet
  facet normal 0 -1 -0
    outer loop
      vertex 1.6 25.6 19.8
      vertex 0 25.6 18.6
      vertex 1.6 25.6 18.6
    endloop
  endfacet
  facet normal 0 -1 0
    outer loop
      vertex 11 25.6 18.6
      vertex 12.6 25.6 19.8
      vertex 11 25.6 19.8
    endloop
  endfacet
  facet normal 0 -1 -0
    outer loop
      vertex 12.6 25.6 19.8
      vertex 11 25.6 18.6
      vertex 12.6 25.6 18.6
    endloop
  endfacet
  facet normal 0 1 -0
    outer loop
      vertex 1.6 21.6 18.6
      vertex 0 21.6 19.8
      vertex 1.6 21.6 19.8
    endloop
  endfacet
  facet normal 0 1 0
    outer loop
      vertex 0 21.6 19.8
      vertex 1.6 21.6 18.6
      vertex 0 21.6 18.6
    endloop
  endfacet
  facet normal 0 1 -0
    outer loop
      vertex 12.6 21.6 18.6
      vertex 11 21.6 19.8
      vertex 12.6 21.6 19.8
    endloop
  endfacet
  facet normal 0 1 0
    outer loop
      vertex 11 21.6 19.8
      vertex 12.6 21.6 18.6
      vertex 11 21.6 18.6
    endloop
  endfacet
  facet normal 1 0 0
    outer loop
      vertex 12.6 25.6 18.6
      vertex 12.6 33.6 21.6
      vertex 12.6 25.6 19.8
    endloop
  endfacet
  facet normal 1 0 0
    outer loop
      vertex 12.6 33.6 21.6
      vertex 12.6 21.6 19.8
      vertex 12.6 25.6 19.8
    endloop
  endfacet
  facet normal 1 0 0
    outer loop
      vertex 12.6 21.6 19.8
      vertex 12.6 12 19.8
      vertex 12.6 21.6 18.6
    endloop
  endfacet
  facet normal 1 0 0
    outer loop
      vertex 12.6 33.6 21.6
      vertex 12.6 12 19.8
      vertex 12.6 21.6 19.8
    endloop
  endfacet
  facet normal 1 -0 0
    outer loop
      vertex 12.6 0 21.6
      vertex 12.6 12 19.8
      vertex 12.6 33.6 21.6
    endloop
  endfacet
  facet normal 1 0 0
    outer loop
      vertex 12.6 8 19.8
      vertex 12.6 0 21.6
      vertex 12.6 8 18.6
    endloop
  endfacet
  facet normal 1 0 0
    outer loop
      vertex 12.6 12 19.8
      vertex 12.6 0 21.6
      vertex 12.6 8 19.8
    endloop
  endfacet
  facet normal 1 0 0
    outer loop
      vertex 12.6 33.6 21.6
      vertex 12.6 25.6 18.6
      vertex 12.6 33.6 12
    endloop
  endfacet
  facet normal 1 -0 0
    outer loop
      vertex 12.6 21.6 18.6
      vertex 12.6 33.6 12
      vertex 12.6 25.6 18.6
    endloop
  endfacet
  facet normal 1 0 0
    outer loop
      vertex 12.6 12 18.6
      vertex 12.6 21.6 18.6
      vertex 12.6 12 19.8
    endloop
  endfacet
  facet normal 1 0 0
    outer loop
      vertex 12.6 21.6 18.6
      vertex 12.6 12 18.6
      vertex 12.6 33.6 12
    endloop
  endfacet
  facet normal 1 0 0
    outer loop
      vertex 12.6 0 12
      vertex 12.6 12 18.6
      vertex 12.6 8 18.6
    endloop
  endfacet
  facet normal 1 0 0
    outer loop
      vertex 12.6 12 18.6
      vertex 12.6 0 12
      vertex 12.6 33.6 12
    endloop
  endfacet
  facet normal 1 0 0
    outer loop
      vertex 12.6 0 12
      vertex 12.6 8 18.6
      vertex 12.6 0 21.6
    endloop
  endfacet
  facet normal 0 0 1
    outer loop
      vertex 4.3 33.6 21.6
      vertex 1.6 32 21.6
      vertex 4.3 32 21.6
    endloop
  endfacet
  facet normal 0 0 1
    outer loop
      vertex 1.6 32 21.6
      vertex 0 33.6 21.6
      vertex 1.6 1.6 21.6
    endloop
  endfacet
  facet normal -0 0 1
    outer loop
      vertex 0 33.6 21.6
      vertex 1.6 32 21.6
      vertex 4.3 33.6 21.6
    endloop
  endfacet
  facet normal 0 0 1
    outer loop
      vertex 12.6 33.6 21.6
      vertex 11 32 21.6
      vertex 12.6 0 21.6
    endloop
  endfacet
  facet normal -0 0 1
    outer loop
      vertex 8.3 33.6 21.6
      vertex 11 32 21.6
      vertex 12.6 33.6 21.6
    endloop
  endfacet
  facet normal 0 0 1
    outer loop
      vertex 11 32 21.6
      vertex 8.3 33.6 21.6
      vertex 8.3 32 21.6
    endloop
  endfacet
  facet normal -0 0 1
    outer loop
      vertex 11 1.6 21.6
      vertex 12.6 0 21.6
      vertex 11 32 21.6
    endloop
  endfacet
  facet normal -0 0 1
    outer loop
      vertex 1.6 1.6 21.6
      vertex 12.6 0 21.6
      vertex 11 1.6 21.6
    endloop
  endfacet
  facet normal 0 0 1
    outer loop
      vertex 1.6 1.6 21.6
      vertex 0 0 21.6
      vertex 12.6 0 21.6
    endloop
  endfacet
  facet normal 0 0 1
    outer loop
      vertex 0 0 21.6
      vertex 1.6 1.6 21.6
      vertex 0 33.6 21.6
    endloop
  endfacet
  facet normal 0 0 -1
    outer loop
      vertex 17.4 0 0
      vertex 19.7 33.6 0
      vertex 19.7 0 0
    endloop
  endfacet
  facet normal -0 0 -1
    outer loop
      vertex 19.7 33.6 0
      vertex 17.4 0 0
      vertex 17.4 33.6 0
    endloop
  endfacet
  facet normal 0 0 -1
    outer loop
      vertex 0 0 0
      vertex 14.9 33.6 0
      vertex 14.9 0 0
    endloop
  endfacet
  facet normal -0 0 -1
    outer loop
      vertex 14.9 33.6 0
      vertex 0 0 0
      vertex 0 33.6 0
    endloop
  endfacet
  facet normal -1 0 0
    outer loop
      vertex 0 8 18.6
      vertex 0 7.6 18.6
      vertex 0 8 19.8
    endloop
  endfacet
  facet normal -1 0 0
    outer loop
      vertex 0 21.6 18.6
      vertex 0 12 18.6
      vertex 0 21.6 19.8
    endloop
  endfacet
  facet normal -1 0 0
    outer loop
      vertex 0 33.6 0
      vertex 0 26 6.2
      vertex 0 33.6 21.6
    endloop
  endfacet
  facet normal -1 0 0
    outer loop
      vertex 0 33.6 0
      vertex 0 7.6 6.2
      vertex 0 26 6.2
    endloop
  endfacet
  facet normal -1 0 0
    outer loop
      vertex 0 0 21.6
      vertex 0 7.6 6.2
      vertex 0 0 0
    endloop
  endfacet
  facet normal -1 0 0
    outer loop
      vertex 0 0 0
      vertex 0 7.6 6.2
      vertex 0 33.6 0
    endloop
  endfacet
  facet normal -1 0 0
    outer loop
      vertex 0 26 18.6
      vertex 0 33.6 21.6
      vertex 0 26 6.2
    endloop
  endfacet
  facet normal -1 0 0
    outer loop
      vertex 0 25.6 19.8
      vertex 0 26 18.6
      vertex 0 25.6 18.6
    endloop
  endfacet
  facet normal -1 0 0
    outer loop
      vertex 0 26 18.6
      vertex 0 25.6 19.8
      vertex 0 33.6 21.6
    endloop
  endfacet
  facet normal -1 0 0
    outer loop
      vertex 0 21.6 19.8
      vertex 0 33.6 21.6
      vertex 0 25.6 19.8
    endloop
  endfacet
  facet normal -1 0 0
    outer loop
      vertex 0 12 19.8
      vertex 0 21.6 19.8
      vertex 0 12 18.6
    endloop
  endfacet
  facet normal -1 0 0
    outer loop
      vertex 0 21.6 19.8
      vertex 0 12 19.8
      vertex 0 33.6 21.6
    endloop
  endfacet
  facet normal -1 0 0
    outer loop
      vertex 0 0 21.6
      vertex 0 12 19.8
      vertex 0 8 19.8
    endloop
  endfacet
  facet normal -1 0 0
    outer loop
      vertex 0 7.6 6.2
      vertex 0 0 21.6
      vertex 0 7.6 18.6
    endloop
  endfacet
  facet normal -1 0 0
    outer loop
      vertex 0 12 19.8
      vertex 0 0 21.6
      vertex 0 33.6 21.6
    endloop
  endfacet
  facet normal -1 0 0
    outer loop
      vertex 0 7.6 18.6
      vertex 0 0 21.6
      vertex 0 8 19.8
    endloop
  endfacet
  facet normal 0 1 0
    outer loop
      vertex 14.9 33.6 0.799999
      vertex 14.9 33.6 0
      vertex 14.2 33.6 0.799999
    endloop
  endfacet
  facet normal 0 1 0
    outer loop
      vertex 19.7 33.6 12
      vertex 18.1 33.6 10.39
      vertex 12.6 33.6 12
    endloop
  endfacet
  facet normal 0 1 -0
    outer loop
      vertex 19.7 33.6 0
      vertex 18.1 33.6 10.39
      vertex 19.7 33.6 12
    endloop
  endfacet
  facet normal 0 1 0
    outer loop
      vertex 18.1 33.6 10.39
      vertex 19.7 33.6 0
      vertex 18.1 33.6 0.799999
    endloop
  endfacet
  facet normal 0 1 0
    outer loop
      vertex 17.4 33.6 0
      vertex 18.1 33.6 0.799999
      vertex 19.7 33.6 0
    endloop
  endfacet
  facet normal 0 1 0
    outer loop
      vertex 18.1 33.6 0.799999
      vertex 17.4 33.6 0
      vertex 17.4 33.6 0.799999
    endloop
  endfacet
  facet normal 0 1 -0
    outer loop
      vertex 12.6 33.6 12
      vertex 8.3 33.6 21.6
      vertex 12.6 33.6 21.6
    endloop
  endfacet
  facet normal 0 1 -0
    outer loop
      vertex 14.2 33.6 10.39
      vertex 12.6 33.6 12
      vertex 18.1 33.6 10.39
    endloop
  endfacet
  facet normal 0 1 0
    outer loop
      vertex 12.6 33.6 12
      vertex 8.3 33.6 3.2
      vertex 8.3 33.6 21.6
    endloop
  endfacet
  facet normal 0 1 0
    outer loop
      vertex 14.2 33.6 10.39
      vertex 8.3 33.6 3.2
      vertex 12.6 33.6 12
    endloop
  endfacet
  facet normal 0 1 0
    outer loop
      vertex 14.9 33.6 0
      vertex 8.3 33.6 3.2
      vertex 14.2 33.6 0.799999
    endloop
  endfacet
  facet normal 0 1 -0
    outer loop
      vertex 14.2 33.6 0.799999
      vertex 8.3 33.6 3.2
      vertex 14.2 33.6 10.39
    endloop
  endfacet
  facet normal 0 1 -0
    outer loop
      vertex 4.3 33.6 3.2
      vertex 0 33.6 21.6
      vertex 4.3 33.6 21.6
    endloop
  endfacet
  facet normal 0 1 0
    outer loop
      vertex 8.3 33.6 3.2
      vertex 14.9 33.6 0
      vertex 0 33.6 0
    endloop
  endfacet
  facet normal 0 1 0
    outer loop
      vertex 4.3 33.6 3.2
      vertex 0 33.6 0
      vertex 0 33.6 21.6
    endloop
  endfacet
  facet normal 0 1 0
    outer loop
      vertex 8.3 33.6 3.2
      vertex 0 33.6 0
      vertex 4.3 33.6 3.2
    endloop
  endfacet
  facet normal 0 -1 0
    outer loop
      vertex 17.4 0 0.799999
      vertex 17.4 0 0
      vertex 18.1 0 0.799999
    endloop
  endfacet
  facet normal 0 -1 0
    outer loop
      vertex 0 0 21.6
      vertex 12.6 0 12
      vertex 12.6 0 21.6
    endloop
  endfacet
  facet normal 0 -1 0
    outer loop
      vertex 12.6 0 12
      vertex 14.2 0 10.39
      vertex 19.7 0 12
    endloop
  endfacet
  facet normal 0 -1 0
    outer loop
      vertex 0 0 0
      vertex 12.6 0 12
      vertex 0 0 21.6
    endloop
  endfacet
  facet normal -0 -1 0
    outer loop
      vertex 14.2 0 0.799999
      vertex 12.6 0 12
      vertex 0 0 0
    endloop
  endfacet
  facet normal 0 -1 0
    outer loop
      vertex 12.6 0 12
      vertex 14.2 0 0.799999
      vertex 14.2 0 10.39
    endloop
  endfacet
  facet normal 0 -1 0
    outer loop
      vertex 14.9 0 0
      vertex 14.2 0 0.799999
      vertex 0 0 0
    endloop
  endfacet
  facet normal 0 -1 0
    outer loop
      vertex 14.2 0 0.799999
      vertex 14.9 0 0
      vertex 14.9 0 0.799999
    endloop
  endfacet
  facet normal 0 -1 0
    outer loop
      vertex 18.1 0 10.39
      vertex 19.7 0 12
      vertex 14.2 0 10.39
    endloop
  endfacet
  facet normal 0 -1 0
    outer loop
      vertex 19.7 0 0
      vertex 18.1 0 10.39
      vertex 18.1 0 0.799999
    endloop
  endfacet
  facet normal 0 -1 0
    outer loop
      vertex 18.1 0 10.39
      vertex 19.7 0 0
      vertex 19.7 0 12
    endloop
  endfacet
  facet normal 0 -1 0
    outer loop
      vertex 19.7 0 0
      vertex 18.1 0 0.799999
      vertex 17.4 0 0
    endloop
  endfacet
  facet normal -1 0 0
    outer loop
      vertex 11 32 1.2
      vertex 11 25.6 18.6
      vertex 11 32 21.6
    endloop
  endfacet
  facet normal -1 0 0
    outer loop
      vertex 11 32 1.2
      vertex 11 21.6 18.6
      vertex 11 25.6 18.6
    endloop
  endfacet
  facet normal -1 0 0
    outer loop
      vertex 11 21.6 18.6
      vertex 11 12 18.6
      vertex 11 21.6 19.8
    endloop
  endfacet
  facet normal -1 0 0
    outer loop
      vertex 11 32 1.2
      vertex 11 12 18.6
      vertex 11 21.6 18.6
    endloop
  endfacet
  facet normal -1 0 0
    outer loop
      vertex 11 1.6 1.2
      vertex 11 12 18.6
      vertex 11 32 1.2
    endloop
  endfacet
  facet normal -1 0 0
    outer loop
      vertex 11 1.6 21.6
      vertex 11 8 18.6
      vertex 11 1.6 1.2
    endloop
  endfacet
  facet normal -1 -0 0
    outer loop
      vertex 11 12 18.6
      vertex 11 1.6 1.2
      vertex 11 8 18.6
    endloop
  endfacet
  facet normal -1 0 0
    outer loop
      vertex 11 25.6 19.8
      vertex 11 32 21.6
      vertex 11 25.6 18.6
    endloop
  endfacet
  facet normal -1 0 0
    outer loop
      vertex 11 21.6 19.8
      vertex 11 32 21.6
      vertex 11 25.6 19.8
    endloop
  endfacet
  facet normal -1 0 0
    outer loop
      vertex 11 12 19.8
      vertex 11 21.6 19.8
      vertex 11 12 18.6
    endloop
  endfacet
  facet normal -1 0 0
    outer loop
      vertex 11 21.6 19.8
      vertex 11 12 19.8
      vertex 11 32 21.6
    endloop
  endfacet
  facet normal -1 0 0
    outer loop
      vertex 11 1.6 21.6
      vertex 11 12 19.8
      vertex 11 8 19.8
    endloop
  endfacet
  facet normal -1 0 0
    outer loop
      vertex 11 12 19.8
      vertex 11 1.6 21.6
      vertex 11 32 21.6
    endloop
  endfacet
  facet normal -1 0 0
    outer loop
      vertex 11 8 18.6
      vertex 11 1.6 21.6
      vertex 11 8 19.8
    endloop
  endfacet
  facet normal -0 0 1
    outer loop
      vertex 1.6 32 1.2
      vertex 11 1.6 1.2
      vertex 11 32 1.2
    endloop
  endfacet
  facet normal 0 0 1
    outer loop
      vertex 11 1.6 1.2
      vertex 1.6 32 1.2
      vertex 1.6 1.6 1.2
    endloop
  endfacet
  facet normal 1 0 0
    outer loop
      vertex 1.6 26 6.2
      vertex 1.6 32 21.6
      vertex 1.6 26 18.6
    endloop
  endfacet
  facet normal 1 0 0
    outer loop
      vertex 1.6 32 21.6
      vertex 1.6 25.6 19.8
      vertex 1.6 26 18.6
    endloop
  endfacet
  facet normal 1 0 0
    outer loop
      vertex 1.6 32 21.6
      vertex 1.6 21.6 19.8
      vertex 1.6 25.6 19.8
    endloop
  endfacet
  facet normal 1 0 0
    outer loop
      vertex 1.6 21.6 19.8
      vertex 1.6 12 19.8
      vertex 1.6 21.6 18.6
    endloop
  endfacet
  facet normal 1 0 0
    outer loop
      vertex 1.6 32 21.6
      vertex 1.6 12 19.8
      vertex 1.6 21.6 19.8
    endloop
  endfacet
  facet normal 1 -0 0
    outer loop
      vertex 1.6 1.6 21.6
      vertex 1.6 12 19.8
      vertex 1.6 32 21.6
    endloop
  endfacet
  facet normal 1 0 0
    outer loop
      vertex 1.6 8 19.8
      vertex 1.6 7.6 18.6
      vertex 1.6 8 18.6
    endloop
  endfacet
  facet normal 1 0 0
    outer loop
      vertex 1.6 7.6 18.6
      vertex 1.6 1.6 21.6
      vertex 1.6 7.6 6.2
    endloop
  endfacet
  facet normal 1 0 0
    outer loop
      vertex 1.6 8 19.8
      vertex 1.6 1.6 21.6
      vertex 1.6 7.6 18.6
    endloop
  endfacet
  facet normal 1 0 0
    outer loop
      vertex 1.6 12 19.8
      vertex 1.6 1.6 21.6
      vertex 1.6 8 19.8
    endloop
  endfacet
  facet normal 1 0 0
    outer loop
      vertex 1.6 32 21.6
      vertex 1.6 26 6.2
      vertex 1.6 32 1.2
    endloop
  endfacet
  facet normal 1 -0 0
    outer loop
      vertex 1.6 7.6 6.2
      vertex 1.6 32 1.2
      vertex 1.6 26 6.2
    endloop
  endfacet
  facet normal 1 0 0
    outer loop
      vertex 1.6 7.6 6.2
      vertex 1.6 1.6 1.2
      vertex 1.6 32 1.2
    endloop
  endfacet
  facet normal 1 0 0
    outer loop
      vertex 1.6 1.6 1.2
      vertex 1.6 7.6 6.2
      vertex 1.6 1.6 21.6
    endloop
  endfacet
  facet normal 1 0 0
    outer loop
      vertex 1.6 26 18.6
      vertex 1.6 25.6 19.8
      vertex 1.6 25.6 18.6
    endloop
  endfacet
  facet normal 1 0 0
    outer loop
      vertex 1.6 21.6 18.6
      vertex 1.6 12 19.8
      vertex 1.6 12 18.6
    endloop
  endfacet
  facet normal 0 -1 0
    outer loop
      vertex 1.6 32 21.6
      vertex 4.3 32 3.2
      vertex 4.3 32 21.6
    endloop
  endfacet
  facet normal 0 -1 -0
    outer loop
      vertex 4.3 32 3.2
      vertex 1.6 32 1.2
      vertex 8.3 32 3.2
    endloop
  endfacet
  facet normal 0 -1 0
    outer loop
      vertex 1.6 32 1.2
      vertex 4.3 32 3.2
      vertex 1.6 32 21.6
    endloop
  endfacet
  facet normal 0 -1 0
    outer loop
      vertex 8.3 32 3.2
      vertex 11 32 21.6
      vertex 8.3 32 21.6
    endloop
  endfacet
  facet normal 0 -1 0
    outer loop
      vertex 8.3 32 3.2
      vertex 11 32 1.2
      vertex 11 32 21.6
    endloop
  endfacet
  facet normal 0 -1 0
    outer loop
      vertex 11 32 1.2
      vertex 8.3 32 3.2
      vertex 1.6 32 1.2
    endloop
  endfacet
  facet normal 0 1 -0
    outer loop
      vertex 11 1.6 1.2
      vertex 1.6 1.6 21.6
      vertex 11 1.6 21.6
    endloop
  endfacet
  facet normal 0 1 0
    outer loop
      vertex 1.6 1.6 21.6
      vertex 11 1.6 1.2
      vertex 1.6 1.6 1.2
    endloop
  endfacet
  facet normal -1 0 0
    outer loop
      vertex 8.3 32 3.2
      vertex 8.3 33.6 21.6
      vertex 8.3 33.6 3.2
    endloop
  endfacet
  facet normal -1 -0 0
    outer loop
      vertex 8.3 33.6 21.6
      vertex 8.3 32 3.2
      vertex 8.3 32 21.6
    endloop
  endfacet
  facet normal -0 0 1
    outer loop
      vertex 4.3 33.6 3.2
      vertex 8.3 32 3.2
      vertex 8.3 33.6 3.2
    endloop
  endfacet
  facet normal 0 0 1
    outer loop
      vertex 8.3 32 3.2
      vertex 4.3 33.6 3.2
      vertex 4.3 32 3.2
    endloop
  endfacet
  facet normal 1 -0 0
    outer loop
      vertex 4.3 32 21.6
      vertex 4.3 33.6 3.2
      vertex 4.3 33.6 21.6
    endloop
  endfacet
  facet normal 1 0 0
    outer loop
      vertex 4.3 33.6 3.2
      vertex 4.3 32 21.6
      vertex 4.3 32 3.2
    endloop
  endfacet
  facet normal -0 0 1
    outer loop
      vertex 0 26 6.2
      vertex 1.6 7.6 6.2
      vertex 1.6 26 6.2
    endloop
  endfacet
  facet normal 0 0 1
    outer loop
      vertex 1.6 7.6 6.2
      vertex 0 26 6.2
      vertex 0 7.6 6.2
    endloop
  endfacet
  facet normal 0 -1 0
    outer loop
      vertex 0 26 6.2
      vertex 1.6 26 18.6
      vertex 0 26 18.6
    endloop
  endfacet
  facet normal 0 -1 -0
    outer loop
      vertex 1.6 26 18.6
      vertex 0 26 6.2
      vertex 1.6 26 6.2
    endloop
  endfacet
  facet normal 0 1 -0
    outer loop
      vertex 1.6 7.6 6.2
      vertex 0 7.6 18.6
      vertex 1.6 7.6 18.6
    endloop
  endfacet
  facet normal 0 1 0
    outer loop
      vertex 0 7.6 18.6
      vertex 1.6 7.6 6.2
      vertex 0 7.6 6.2
    endloop
  endfacet
  facet normal 1 -0 0
    outer loop
      vertex 19.7 0 12
      vertex 19.7 33.6 0
      vertex 19.7 33.6 12
    endloop
  endfacet
  facet normal 1 0 0
    outer loop
      vertex 19.7 33.6 0
      vertex 19.7 0 12
      vertex 19.7 0 0
    endloop
  endfacet
  facet normal -0 0 1
    outer loop
      vertex 12.6 33.6 12
      vertex 19.7 0 12
      vertex 19.7 33.6 12
    endloop
  endfacet
  facet normal 0 0 1
    outer loop
      vertex 19.7 0 12
      vertex 12.6 33.6 12
      vertex 12.6 0 12
    endloop
  endfacet
  facet normal -1 0 0
    outer loop
      vertex 18.1 0 0.799999
      vertex 18.1 33.6 10.39
      vertex 18.1 33.6 0.799999
    endloop
  endfacet
  facet normal -1 -0 0
    outer loop
      vertex 18.1 33.6 10.39
      vertex 18.1 0 0.799999
      vertex 18.1 0 10.39
    endloop
  endfacet
  facet normal 0 0 -1
    outer loop
      vertex 14.2 0 10.39
      vertex 18.1 33.6 10.39
      vertex 18.1 0 10.39
    endloop
  endfacet
  facet normal -0 0 -1
    outer loop
      vertex 18.1 33.6 10.39
      vertex 14.2 0 10.39
      vertex 14.2 33.6 10.39
    endloop
  endfacet
  facet normal 1 -0 0
    outer loop
      vertex 14.2 0 10.39
      vertex 14.2 33.6 0.799999
      vertex 14.2 33.6 10.39
    endloop
  endfacet
  facet normal 1 0 0
    outer loop
      vertex 14.2 33.6 0.799999
      vertex 14.2 0 10.39
      vertex 14.2 0 0.799999
    endloop
  endfacet
  facet normal 1 -0 0
    outer loop
      vertex 14.9 0 0.799999
      vertex 14.9 33.6 0
      vertex 14.9 33.6 0.799999
    endloop
  endfacet
  facet normal 1 0 0
    outer loop
      vertex 14.9 33.6 0
      vertex 14.9 0 0.799999
      vertex 14.9 0 0
    endloop
  endfacet
  facet normal -0 0 1
    outer loop
      vertex 14.2 33.6 0.799999
      vertex 14.9 0 0.799999
      vertex 14.9 33.6 0.799999
    endloop
  endfacet
  facet normal 0 0 1
    outer loop
      vertex 14.9 0 0.799999
      vertex 14.2 33.6 0.799999
      vertex 14.2 0 0.799999
    endloop
  endfacet
  facet normal -0 0 1
    outer loop
      vertex 17.4 33.6 0.799999
      vertex 18.1 0 0.799999
      vertex 18.1 33.6 0.799999
    endloop
  endfacet
  facet normal 0 0 1
    outer loop
      vertex 18.1 0 0.799999
      vertex 17.4 33.6 0.799999
      vertex 17.4 0 0.799999
    endloop
  endfacet
  facet normal -1 0 0
    outer loop
      vertex 17.4 0 0
      vertex 17.4 33.6 0.799999
      vertex 17.4 33.6 0
    endloop
  endfacet
  facet normal -1 -0 0
    outer loop
      vertex 17.4 33.6 0.799999
      vertex 17.4 0 0
      vertex 17.4 0 0.799999
    endloop
  endfacet
endsolid OpenSCAD_Model
