solid OpenSCAD_Model
  facet normal 1 -0 0
    outer loop
      vertex 21.4 0 5.9
      vertex 21.4 36.8 0
      vertex 21.4 36.8 5.9
    endloop
  endfacet
  facet normal 1 0 0
    outer loop
      vertex 21.4 36.8 0
      vertex 21.4 0 5.9
      vertex 21.4 0 0
    endloop
  endfacet
  facet normal -0 0 1
    outer loop
      vertex 8.6 26.2 5.9
      vertex 9.6 25.6 5.9
      vertex 12.8 26.2 5.9
    endloop
  endfacet
  facet normal 0 0 1
    outer loop
      vertex 9.6 25.6 5.9
      vertex 8.6 26.2 5.9
      vertex 3.6 25.6 5.9
    endloop
  endfacet
  facet normal 0 0 1
    outer loop
      vertex 19.8 20 5.9
      vertex 21.4 36.8 5.9
      vertex 19.8 23 5.9
    endloop
  endfacet
  facet normal 0 0 1
    outer loop
      vertex 12.8 26.2 5.9
      vertex 21.4 36.8 5.9
      vertex 12.8 35.2 5.9
    endloop
  endfacet
  facet normal 0 0 1
    outer loop
      vertex 21.4 36.8 5.9
      vertex 8.6 35.2 5.9
      vertex 12.8 35.2 5.9
    endloop
  endfacet
  facet normal 0 0 1
    outer loop
      vertex 8.6 35.2 5.9
      vertex 3.6 25.6 5.9
      vertex 8.6 26.2 5.9
    endloop
  endfacet
  facet normal 0 0 1
    outer loop
      vertex 3.6 25.6 5.9
      vertex 1.6 23 5.9
      vertex 3.6 23 5.9
    endloop
  endfacet
  facet normal 0 0 1
    outer loop
      vertex 0 36.8 5.9
      vertex 3.6 25.6 5.9
      vertex 8.6 35.2 5.9
    endloop
  endfacet
  facet normal 0 0 1
    outer loop
      vertex 0 36.8 5.9
      vertex 1.6 20 5.9
      vertex 1.6 23 5.9
    endloop
  endfacet
  facet normal 0 0 1
    outer loop
      vertex 1.6 20 5.9
      vertex 0 0 5.9
      vertex 1.6 4.6 5.9
    endloop
  endfacet
  facet normal 0 0 1
    outer loop
      vertex 1.6 20 5.9
      vertex 0 36.8 5.9
      vertex 0 0 5.9
    endloop
  endfacet
  facet normal 0 0 1
    outer loop
      vertex 3.6 25.6 5.9
      vertex 0 36.8 5.9
      vertex 1.6 23 5.9
    endloop
  endfacet
  facet normal -0 0 1
    outer loop
      vertex 0 36.8 5.9
      vertex 8.6 35.2 5.9
      vertex 21.4 36.8 5.9
    endloop
  endfacet
  facet normal 0 0 1
    outer loop
      vertex 21.4 36.8 5.9
      vertex 19.8 20 5.9
      vertex 21.4 0 5.9
    endloop
  endfacet
  facet normal -0 0 1
    outer loop
      vertex 19.8 4.6 5.9
      vertex 21.4 0 5.9
      vertex 19.8 20 5.9
    endloop
  endfacet
  facet normal -0 0 1
    outer loop
      vertex 19.8 1.6 5.9
      vertex 21.4 0 5.9
      vertex 19.8 4.6 5.9
    endloop
  endfacet
  facet normal 0 0 1
    outer loop
      vertex 15.7 0 5.9
      vertex 19.8 1.6 5.9
      vertex 15.7 1.6 5.9
    endloop
  endfacet
  facet normal 0 0 1
    outer loop
      vertex 19.8 1.6 5.9
      vertex 15.7 0 5.9
      vertex 21.4 0 5.9
    endloop
  endfacet
  facet normal 0 0 1
    outer loop
      vertex 21.4 36.8 5.9
      vertex 12.8 26.2 5.9
      vertex 19.8 23 5.9
    endloop
  endfacet
  facet normal 0 0 1
    outer loop
      vertex 9.6 23 5.9
      vertex 12.8 26.2 5.9
      vertex 9.6 25.6 5.9
    endloop
  endfacet
  facet normal 0 0 1
    outer loop
      vertex 12.8 26.2 5.9
      vertex 9.6 23 5.9
      vertex 19.8 23 5.9
    endloop
  endfacet
  facet normal -0 0 1
    outer loop
      vertex 1.6 1.6 5.9
      vertex 5.7 0 5.9
      vertex 5.7 1.6 5.9
    endloop
  endfacet
  facet normal 0 0 1
    outer loop
      vertex 1.6 1.6 5.9
      vertex 0 0 5.9
      vertex 5.7 0 5.9
    endloop
  endfacet
  facet normal 0 0 1
    outer loop
      vertex 1.6 4.6 5.9
      vertex 0 0 5.9
      vertex 1.6 1.6 5.9
    endloop
  endfacet
  facet normal 0 0 -1
    outer loop
      vertex -7.1 0 0
      vertex -4.8 36.8 0
      vertex -4.8 0 0
    endloop
  endfacet
  facet normal -0 0 -1
    outer loop
      vertex -4.8 36.8 0
      vertex -7.1 0 0
      vertex -7.1 36.8 0
    endloop
  endfacet
  facet normal 0 0 -1
    outer loop
      vertex 16.8 19 0
      vertex 9.7 27.2 0
      vertex 11.7 27.2 0
    endloop
  endfacet
  facet normal 0 0 -1
    outer loop
      vertex -2.3 36.8 0
      vertex 9.7 27.2 0
      vertex 4.6 19 0
    endloop
  endfacet
  facet normal 0 0 -1
    outer loop
      vertex 4.6 19 0
      vertex 9.7 27.2 0
      vertex 16.8 19 0
    endloop
  endfacet
  facet normal 0 0 -1
    outer loop
      vertex 16.8 19 0
      vertex 21.4 0 0
      vertex 16.8 5.6 0
    endloop
  endfacet
  facet normal 0 0 -1
    outer loop
      vertex 21.4 0 0
      vertex 4.6 5.6 0
      vertex 16.8 5.6 0
    endloop
  endfacet
  facet normal -0 0 -1
    outer loop
      vertex 4.6 5.6 0
      vertex -2.3 0 0
      vertex 4.6 19 0
    endloop
  endfacet
  facet normal 0 0 -1
    outer loop
      vertex -2.3 0 0
      vertex 4.6 5.6 0
      vertex 21.4 0 0
    endloop
  endfacet
  facet normal 0 0 -1
    outer loop
      vertex 21.4 0 0
      vertex 16.8 19 0
      vertex 21.4 36.8 0
    endloop
  endfacet
  facet normal 0 0 -1
    outer loop
      vertex 11.7 27.2 0
      vertex 21.4 36.8 0
      vertex 16.8 19 0
    endloop
  endfacet
  facet normal 0 0 -1
    outer loop
      vertex 11.7 34.2 0
      vertex 21.4 36.8 0
      vertex 11.7 27.2 0
    endloop
  endfacet
  facet normal 0 0 -1
    outer loop
      vertex 9.7 34.2 0
      vertex 21.4 36.8 0
      vertex 11.7 34.2 0
    endloop
  endfacet
  facet normal 0 0 -1
    outer loop
      vertex -2.3 36.8 0
      vertex 4.6 19 0
      vertex -2.3 0 0
    endloop
  endfacet
  facet normal 0 0 -1
    outer loop
      vertex 9.7 34.2 0
      vertex -2.3 36.8 0
      vertex 21.4 36.8 0
    endloop
  endfacet
  facet normal 0 0 -1
    outer loop
      vertex 9.7 27.2 0
      vertex -2.3 36.8 0
      vertex 9.7 34.2 0
    endloop
  endfacet
  facet normal 1 -0 0
    outer loop
      vertex 0 0 12
      vertex 0 36.8 5.9
      vertex 0 36.8 12
    endloop
  endfacet
  facet normal 1 0 0
    outer loop
      vertex 0 36.8 5.9
      vertex 0 0 12
      vertex 0 0 5.9
    endloop
  endfacet
  facet normal 0 1 0
    outer loop
      vertex -4.8 36.8 0.799999
      vertex -4.8 36.8 0
      vertex -5.5 36.8 0.799999
    endloop
  endfacet
  facet normal 0 1 -0
    outer loop
      vertex 21.4 36.8 0
      vertex 0 36.8 5.9
      vertex 21.4 36.8 5.9
    endloop
  endfacet
  facet normal 0 1 0
    outer loop
      vertex 0 36.8 5.9
      vertex 21.4 36.8 0
      vertex -1.6 36.8 0.799999
    endloop
  endfacet
  facet normal 0 1 0
    outer loop
      vertex -2.3 36.8 0
      vertex -1.6 36.8 0.799999
      vertex 21.4 36.8 0
    endloop
  endfacet
  facet normal 0 1 0
    outer loop
      vertex -1.6 36.8 0.799999
      vertex -2.3 36.8 0
      vertex -2.3 36.8 0.799999
    endloop
  endfacet
  facet normal 0 1 0
    outer loop
      vertex 0 36.8 12
      vertex -1.6 36.8 10.39
      vertex -7.1 36.8 12
    endloop
  endfacet
  facet normal 0 1 -0
    outer loop
      vertex 0 36.8 5.9
      vertex -1.6 36.8 10.39
      vertex 0 36.8 12
    endloop
  endfacet
  facet normal 0 1 0
    outer loop
      vertex -1.6 36.8 10.39
      vertex 0 36.8 5.9
      vertex -1.6 36.8 0.799999
    endloop
  endfacet
  facet normal 0 1 -0
    outer loop
      vertex -5.5 36.8 10.39
      vertex -7.1 36.8 12
      vertex -1.6 36.8 10.39
    endloop
  endfacet
  facet normal 0 1 0
    outer loop
      vertex -7.1 36.8 0
      vertex -5.5 36.8 10.39
      vertex -5.5 36.8 0.799999
    endloop
  endfacet
  facet normal 0 1 0
    outer loop
      vertex -5.5 36.8 10.39
      vertex -7.1 36.8 0
      vertex -7.1 36.8 12
    endloop
  endfacet
  facet normal 0 1 0
    outer loop
      vertex -7.1 36.8 0
      vertex -5.5 36.8 0.799999
      vertex -4.8 36.8 0
    endloop
  endfacet
  facet normal 0 -1 0
    outer loop
      vertex -2.3 0 0.799999
      vertex -2.3 0 0
      vertex -1.6 0 0.799999
    endloop
  endfacet
  facet normal 0 -1 0
    outer loop
      vertex -7.1 0 12
      vertex -5.5 0 10.39
      vertex 0 0 12
    endloop
  endfacet
  facet normal 0 -1 0
    outer loop
      vertex -7.1 0 0
      vertex -5.5 0 10.39
      vertex -7.1 0 12
    endloop
  endfacet
  facet normal 0 -1 -0
    outer loop
      vertex -5.5 0 10.39
      vertex -7.1 0 0
      vertex -5.5 0 0.799999
    endloop
  endfacet
  facet normal 0 -1 0
    outer loop
      vertex -4.8 0 0
      vertex -5.5 0 0.799999
      vertex -7.1 0 0
    endloop
  endfacet
  facet normal 0 -1 0
    outer loop
      vertex -5.5 0 0.799999
      vertex -4.8 0 0
      vertex -4.8 0 0.799999
    endloop
  endfacet
  facet normal 0 -1 0
    outer loop
      vertex -1.6 0 10.39
      vertex 0 0 12
      vertex -5.5 0 10.39
    endloop
  endfacet
  facet normal 0 -1 0
    outer loop
      vertex -1.6 0 10.39
      vertex 0 0 5.9
      vertex 0 0 12
    endloop
  endfacet
  facet normal 0 -1 0
    outer loop
      vertex 0 0 5.9
      vertex 5.7 0 1.6
      vertex 5.7 0 5.9
    endloop
  endfacet
  facet normal 0 -1 0
    outer loop
      vertex -2.3 0 0
      vertex 5.7 0 1.6
      vertex -1.6 0 0.799999
    endloop
  endfacet
  facet normal 0 -1 -0
    outer loop
      vertex 0 0 5.9
      vertex -1.6 0 0.799999
      vertex 5.7 0 1.6
    endloop
  endfacet
  facet normal 0 -1 0
    outer loop
      vertex -1.6 0 0.799999
      vertex 0 0 5.9
      vertex -1.6 0 10.39
    endloop
  endfacet
  facet normal 0 -1 0
    outer loop
      vertex 15.7 0 1.6
      vertex 21.4 0 5.9
      vertex 15.7 0 5.9
    endloop
  endfacet
  facet normal 0 -1 0
    outer loop
      vertex 21.4 0 0
      vertex 5.7 0 1.6
      vertex -2.3 0 0
    endloop
  endfacet
  facet normal 0 -1 0
    outer loop
      vertex 15.7 0 1.6
      vertex 21.4 0 0
      vertex 21.4 0 5.9
    endloop
  endfacet
  facet normal 0 -1 0
    outer loop
      vertex 5.7 0 1.6
      vertex 21.4 0 0
      vertex 15.7 0 1.6
    endloop
  endfacet
  facet normal -1 0 0
    outer loop
      vertex 19.8 4.6 5.3
      vertex 19.8 20 5.9
      vertex 19.8 20 5.3
    endloop
  endfacet
  facet normal -1 -0 0
    outer loop
      vertex 19.8 20 5.9
      vertex 19.8 4.6 5.3
      vertex 19.8 4.6 5.9
    endloop
  endfacet
  facet normal -1 0 0
    outer loop
      vertex 19.8 23 1.2
      vertex 19.8 20 5.3
      vertex 19.8 23 5.9
    endloop
  endfacet
  facet normal -1 0 0
    outer loop
      vertex 19.8 23 1.2
      vertex 19.8 4.6 5.3
      vertex 19.8 20 5.3
    endloop
  endfacet
  facet normal -1 0 0
    outer loop
      vertex 19.8 1.6 1.2
      vertex 19.8 4.6 5.3
      vertex 19.8 23 1.2
    endloop
  endfacet
  facet normal -1 0 0
    outer loop
      vertex 19.8 1.6 5.9
      vertex 19.8 4.6 5.3
      vertex 19.8 1.6 1.2
    endloop
  endfacet
  facet normal -1 0 0
    outer loop
      vertex 19.8 4.6 5.3
      vertex 19.8 1.6 5.9
      vertex 19.8 4.6 5.9
    endloop
  endfacet
  facet normal -1 -0 0
    outer loop
      vertex 19.8 23 5.9
      vertex 19.8 20 5.3
      vertex 19.8 20 5.9
    endloop
  endfacet
  facet normal 0 0 1
    outer loop
      vertex 19.8 23 1.2
      vertex 16.8 19 1.2
      vertex 19.8 1.6 1.2
    endloop
  endfacet
  facet normal 0 0 1
    outer loop
      vertex 19.8 23 1.2
      vertex 4.6 19 1.2
      vertex 16.8 19 1.2
    endloop
  endfacet
  facet normal 0 0 1
    outer loop
      vertex 4.6 19 1.2
      vertex 1.6 23 1.2
      vertex 4.6 5.6 1.2
    endloop
  endfacet
  facet normal -0 0 1
    outer loop
      vertex 1.6 23 1.2
      vertex 4.6 19 1.2
      vertex 19.8 23 1.2
    endloop
  endfacet
  facet normal -0 0 1
    outer loop
      vertex 16.8 5.6 1.2
      vertex 19.8 1.6 1.2
      vertex 16.8 19 1.2
    endloop
  endfacet
  facet normal -0 0 1
    outer loop
      vertex 4.6 5.6 1.2
      vertex 19.8 1.6 1.2
      vertex 16.8 5.6 1.2
    endloop
  endfacet
  facet normal 0 0 1
    outer loop
      vertex 4.6 5.6 1.2
      vertex 1.6 1.6 1.2
      vertex 19.8 1.6 1.2
    endloop
  endfacet
  facet normal 0 0 1
    outer loop
      vertex 1.6 1.6 1.2
      vertex 4.6 5.6 1.2
      vertex 1.6 23 1.2
    endloop
  endfacet
  facet normal 1 -0 0
    outer loop
      vertex 1.6 4.6 5.9
      vertex 1.6 20 5.3
      vertex 1.6 20 5.9
    endloop
  endfacet
  facet normal 1 0 0
    outer loop
      vertex 1.6 20 5.3
      vertex 1.6 4.6 5.9
      vertex 1.6 4.6 5.3
    endloop
  endfacet
  facet normal 1 0 0
    outer loop
      vertex 1.6 4.6 5.9
      vertex 1.6 1.6 5.9
      vertex 1.6 4.6 5.3
    endloop
  endfacet
  facet normal 1 0 0
    outer loop
      vertex 1.6 20 5.3
      vertex 1.6 23 5.9
      vertex 1.6 20 5.9
    endloop
  endfacet
  facet normal 1 0 0
    outer loop
      vertex 1.6 23 5.9
      vertex 1.6 20 5.3
      vertex 1.6 23 1.2
    endloop
  endfacet
  facet normal 1 -0 0
    outer loop
      vertex 1.6 4.6 5.3
      vertex 1.6 23 1.2
      vertex 1.6 20 5.3
    endloop
  endfacet
  facet normal 1 0 0
    outer loop
      vertex 1.6 1.6 1.2
      vertex 1.6 4.6 5.3
      vertex 1.6 1.6 5.9
    endloop
  endfacet
  facet normal 1 0 0
    outer loop
      vertex 1.6 4.6 5.3
      vertex 1.6 1.6 1.2
      vertex 1.6 23 1.2
    endloop
  endfacet
  facet normal 0 -1 0
    outer loop
      vertex 1.6 23 5.9
      vertex 3.6 23 2.2
      vertex 3.6 23 5.9
    endloop
  endfacet
  facet normal 0 -1 -0
    outer loop
      vertex 3.6 23 2.2
      vertex 1.6 23 1.2
      vertex 9.6 23 2.2
    endloop
  endfacet
  facet normal 0 -1 0
    outer loop
      vertex 1.6 23 1.2
      vertex 3.6 23 2.2
      vertex 1.6 23 5.9
    endloop
  endfacet
  facet normal 0 -1 0
    outer loop
      vertex 9.6 23 2.2
      vertex 19.8 23 5.9
      vertex 9.6 23 5.9
    endloop
  endfacet
  facet normal 0 -1 0
    outer loop
      vertex 9.6 23 2.2
      vertex 19.8 23 1.2
      vertex 19.8 23 5.9
    endloop
  endfacet
  facet normal 0 -1 0
    outer loop
      vertex 19.8 23 1.2
      vertex 9.6 23 2.2
      vertex 1.6 23 1.2
    endloop
  endfacet
  facet normal 0 1 0
    outer loop
      vertex 19.8 1.6 5.9
      vertex 15.7 1.6 1.6
      vertex 15.7 1.6 5.9
    endloop
  endfacet
  facet normal 0 1 0
    outer loop
      vertex 15.7 1.6 1.6
      vertex 19.8 1.6 1.2
      vertex 5.7 1.6 1.6
    endloop
  endfacet
  facet normal 0 1 -0
    outer loop
      vertex 19.8 1.6 1.2
      vertex 15.7 1.6 1.6
      vertex 19.8 1.6 5.9
    endloop
  endfacet
  facet normal 0 1 -0
    outer loop
      vertex 5.7 1.6 1.6
      vertex 1.6 1.6 5.9
      vertex 5.7 1.6 5.9
    endloop
  endfacet
  facet normal 0 1 0
    outer loop
      vertex 5.7 1.6 1.6
      vertex 1.6 1.6 1.2
      vertex 1.6 1.6 5.9
    endloop
  endfacet
  facet normal 0 1 0
    outer loop
      vertex 1.6 1.6 1.2
      vertex 5.7 1.6 1.6
      vertex 19.8 1.6 1.2
    endloop
  endfacet
  facet normal -1 0 0
    outer loop
      vertex 15.7 0 1.6
      vertex 15.7 1.6 5.9
      vertex 15.7 1.6 1.6
    endloop
  endfacet
  facet normal -1 -0 0
    outer loop
      vertex 15.7 1.6 5.9
      vertex 15.7 0 1.6
      vertex 15.7 0 5.9
    endloop
  endfacet
  facet normal -0 0 1
    outer loop
      vertex 5.7 1.6 1.6
      vertex 15.7 0 1.6
      vertex 15.7 1.6 1.6
    endloop
  endfacet
  facet normal 0 0 1
    outer loop
      vertex 15.7 0 1.6
      vertex 5.7 1.6 1.6
      vertex 5.7 0 1.6
    endloop
  endfacet
  facet normal 1 -0 0
    outer loop
      vertex 5.7 0 5.9
      vertex 5.7 1.6 1.6
      vertex 5.7 1.6 5.9
    endloop
  endfacet
  facet normal 1 0 0
    outer loop
      vertex 5.7 1.6 1.6
      vertex 5.7 0 5.9
      vertex 5.7 0 1.6
    endloop
  endfacet
  facet normal -1 0 0
    outer loop
      vertex 16.8 5.6 0
      vertex 16.8 19 1.2
      vertex 16.8 19 0
    endloop
  endfacet
  facet normal -1 -0 0
    outer loop
      vertex 16.8 19 1.2
      vertex 16.8 5.6 0
      vertex 16.8 5.6 1.2
    endloop
  endfacet
  facet normal 1 -0 0
    outer loop
      vertex 4.6 5.6 1.2
      vertex 4.6 19 0
      vertex 4.6 19 1.2
    endloop
  endfacet
  facet normal 1 0 0
    outer loop
      vertex 4.6 19 0
      vertex 4.6 5.6 1.2
      vertex 4.6 5.6 0
    endloop
  endfacet
  facet normal 0 -1 0
    outer loop
      vertex 4.6 19 0
      vertex 16.8 19 1.2
      vertex 4.6 19 1.2
    endloop
  endfacet
  facet normal 0 -1 -0
    outer loop
      vertex 16.8 19 1.2
      vertex 4.6 19 0
      vertex 16.8 19 0
    endloop
  endfacet
  facet normal 0 1 -0
    outer loop
      vertex 16.8 5.6 0
      vertex 4.6 5.6 1.2
      vertex 16.8 5.6 1.2
    endloop
  endfacet
  facet normal 0 1 0
    outer loop
      vertex 4.6 5.6 1.2
      vertex 16.8 5.6 0
      vertex 4.6 5.6 0
    endloop
  endfacet
  facet normal -1 0 0
    outer loop
      vertex 9.6 23 2.2
      vertex 9.6 25.6 5.9
      vertex 9.6 25.6 2.2
    endloop
  endfacet
  facet normal -1 -0 0
    outer loop
      vertex 9.6 25.6 5.9
      vertex 9.6 23 2.2
      vertex 9.6 23 5.9
    endloop
  endfacet
  facet normal -0 0 1
    outer loop
      vertex 3.6 25.6 2.2
      vertex 9.6 23 2.2
      vertex 9.6 25.6 2.2
    endloop
  endfacet
  facet normal 0 0 1
    outer loop
      vertex 9.6 23 2.2
      vertex 3.6 25.6 2.2
      vertex 3.6 23 2.2
    endloop
  endfacet
  facet normal 1 -0 0
    outer loop
      vertex 3.6 23 5.9
      vertex 3.6 25.6 2.2
      vertex 3.6 25.6 5.9
    endloop
  endfacet
  facet normal 1 0 0
    outer loop
      vertex 3.6 25.6 2.2
      vertex 3.6 23 5.9
      vertex 3.6 23 2.2
    endloop
  endfacet
  facet normal 0 -1 0
    outer loop
      vertex 3.6 25.6 2.2
      vertex 9.6 25.6 5.9
      vertex 3.6 25.6 5.9
    endloop
  endfacet
  facet normal 0 -1 -0
    outer loop
      vertex 9.6 25.6 5.9
      vertex 3.6 25.6 2.2
      vertex 9.6 25.6 2.2
    endloop
  endfacet
  facet normal -1 0 0
    outer loop
      vertex 12.8 26.2 1.2
      vertex 12.8 35.2 5.9
      vertex 12.8 35.2 1.2
    endloop
  endfacet
  facet normal -1 -0 0
    outer loop
      vertex 12.8 35.2 5.9
      vertex 12.8 26.2 1.2
      vertex 12.8 26.2 5.9
    endloop
  endfacet
  facet normal 0 0 1
    outer loop
      vertex 12.8 35.2 1.2
      vertex 11.7 34.2 1.2
      vertex 12.8 26.2 1.2
    endloop
  endfacet
  facet normal 0 0 1
    outer loop
      vertex 12.8 35.2 1.2
      vertex 9.7 34.2 1.2
      vertex 11.7 34.2 1.2
    endloop
  endfacet
  facet normal 0 0 1
    outer loop
      vertex 9.7 34.2 1.2
      vertex 8.6 35.2 1.2
      vertex 9.7 27.2 1.2
    endloop
  endfacet
  facet normal -0 0 1
    outer loop
      vertex 8.6 35.2 1.2
      vertex 9.7 34.2 1.2
      vertex 12.8 35.2 1.2
    endloop
  endfacet
  facet normal -0 0 1
    outer loop
      vertex 11.7 27.2 1.2
      vertex 12.8 26.2 1.2
      vertex 11.7 34.2 1.2
    endloop
  endfacet
  facet normal -0 0 1
    outer loop
      vertex 9.7 27.2 1.2
      vertex 12.8 26.2 1.2
      vertex 11.7 27.2 1.2
    endloop
  endfacet
  facet normal 0 0 1
    outer loop
      vertex 9.7 27.2 1.2
      vertex 8.6 26.2 1.2
      vertex 12.8 26.2 1.2
    endloop
  endfacet
  facet normal 0 0 1
    outer loop
      vertex 8.6 26.2 1.2
      vertex 9.7 27.2 1.2
      vertex 8.6 35.2 1.2
    endloop
  endfacet
  facet normal 1 -0 0
    outer loop
      vertex 8.6 26.2 5.9
      vertex 8.6 35.2 1.2
      vertex 8.6 35.2 5.9
    endloop
  endfacet
  facet normal 1 0 0
    outer loop
      vertex 8.6 35.2 1.2
      vertex 8.6 26.2 5.9
      vertex 8.6 26.2 1.2
    endloop
  endfacet
  facet normal 0 -1 0
    outer loop
      vertex 8.6 35.2 1.2
      vertex 12.8 35.2 5.9
      vertex 8.6 35.2 5.9
    endloop
  endfacet
  facet normal 0 -1 -0
    outer loop
      vertex 12.8 35.2 5.9
      vertex 8.6 35.2 1.2
      vertex 12.8 35.2 1.2
    endloop
  endfacet
  facet normal 0 1 -0
    outer loop
      vertex 12.8 26.2 1.2
      vertex 8.6 26.2 5.9
      vertex 12.8 26.2 5.9
    endloop
  endfacet
  facet normal 0 1 0
    outer loop
      vertex 8.6 26.2 5.9
      vertex 12.8 26.2 1.2
      vertex 8.6 26.2 1.2
    endloop
  endfacet
  facet normal -1 0 0
    outer loop
      vertex 11.7 27.2 0
      vertex 11.7 34.2 1.2
      vertex 11.7 34.2 0
    endloop
  endfacet
  facet normal -1 -0 0
    outer loop
      vertex 11.7 34.2 1.2
      vertex 11.7 27.2 0
      vertex 11.7 27.2 1.2
    endloop
  endfacet
  facet normal 1 -0 0
    outer loop
      vertex 9.7 27.2 1.2
      vertex 9.7 34.2 0
      vertex 9.7 34.2 1.2
    endloop
  endfacet
  facet normal 1 0 0
    outer loop
      vertex 9.7 34.2 0
      vertex 9.7 27.2 1.2
      vertex 9.7 27.2 0
    endloop
  endfacet
  facet normal 0 -1 0
    outer loop
      vertex 9.7 34.2 0
      vertex 11.7 34.2 1.2
      vertex 9.7 34.2 1.2
    endloop
  endfacet
  facet normal 0 -1 -0
    outer loop
      vertex 11.7 34.2 1.2
      vertex 9.7 34.2 0
      vertex 11.7 34.2 0
    endloop
  endfacet
  facet normal 0 1 -0
    outer loop
      vertex 11.7 27.2 0
      vertex 9.7 27.2 1.2
      vertex 11.7 27.2 1.2
    endloop
  endfacet
  facet normal 0 1 0
    outer loop
      vertex 9.7 27.2 1.2
      vertex 11.7 27.2 0
      vertex 9.7 27.2 0
    endloop
  endfacet
  facet normal -0 0 1
    outer loop
      vertex -7.1 36.8 12
      vertex 0 0 12
      vertex 0 36.8 12
    endloop
  endfacet
  facet normal 0 0 1
    outer loop
      vertex 0 0 12
      vertex -7.1 36.8 12
      vertex -7.1 0 12
    endloop
  endfacet
  facet normal -1 0 0
    outer loop
      vertex -7.1 0 0
      vertex -7.1 36.8 12
      vertex -7.1 36.8 0
    endloop
  endfacet
  facet normal -1 -0 0
    outer loop
      vertex -7.1 36.8 12
      vertex -7.1 0 0
      vertex -7.1 0 12
    endloop
  endfacet
  facet normal -1 0 0
    outer loop
      vertex -1.6 0 0.799999
      vertex -1.6 36.8 10.39
      vertex -1.6 36.8 0.799999
    endloop
  endfacet
  facet normal -1 -0 0
    outer loop
      vertex -1.6 36.8 10.39
      vertex -1.6 0 0.799999
      vertex -1.6 0 10.39
    endloop
  endfacet
  facet normal 0 0 -1
    outer loop
      vertex -5.5 0 10.39
      vertex -1.6 36.8 10.39
      vertex -1.6 0 10.39
    endloop
  endfacet
  facet normal -0 0 -1
    outer loop
      vertex -1.6 36.8 10.39
      vertex -5.5 0 10.39
      vertex -5.5 36.8 10.39
    endloop
  endfacet
  facet normal 1 -0 0
    outer loop
      vertex -5.5 0 10.39
      vertex -5.5 36.8 0.799999
      vertex -5.5 36.8 10.39
    endloop
  endfacet
  facet normal 1 0 0
    outer loop
      vertex -5.5 36.8 0.799999
      vertex -5.5 0 10.39
      vertex -5.5 0 0.799999
    endloop
  endfacet
  facet normal 1 -0 0
    outer loop
      vertex -4.8 0 0.799999
      vertex -4.8 36.8 0
      vertex -4.8 36.8 0.799999
    endloop
  endfacet
  facet normal 1 0 0
    outer loop
      vertex -4.8 36.8 0
      vertex -4.8 0 0.799999
      vertex -4.8 0 0
    endloop
  endfacet
  facet normal -0 0 1
    outer loop
      vertex -5.5 36.8 0.799999
      vertex -4.8 0 0.799999
      vertex -4.8 36.8 0.799999
    endloop
  endfacet
  facet normal 0 0 1
    outer loop
      vertex -4.8 0 0.799999
      vertex -5.5 36.8 0.799999
      vertex -5.5 0 0.799999
    endloop
  endfacet
  facet normal -0 0 1
    outer loop
      vertex -2.3 36.8 0.799999
      vertex -1.6 0 0.799999
      vertex -1.6 36.8 0.799999
    endloop
  endfacet
  facet normal 0 0 1
    outer loop
      vertex -1.6 0 0.799999
      vertex -2.3 36.8 0.799999
      vertex -2.3 0 0.799999
    endloop
  endfacet
  facet normal -1 0 0
    outer loop
      vertex -2.3 0 0
      vertex -2.3 36.8 0.799999
      vertex -2.3 36.8 0
    endloop
  endfacet
  facet normal -1 -0 0
    outer loop
      vertex -2.3 36.8 0.799999
      vertex -2.3 0 0
      vertex -2.3 0 0.799999
    endloop
  endfacet
endsolid OpenSCAD_Model
