solid OpenSCAD_Model
  facet normal 1 0 0
    outer loop
      vertex 7 -12 31.3
      vertex 7 -18.7 31.3
      vertex 7 -12 9.5
    endloop
  endfacet
  facet normal 1 0 0
    outer loop
      vertex 7 12 9.5
      vertex 7 18.7 31.3
      vertex 7 12 31.3
    endloop
  endfacet
  facet normal 1 0 0
    outer loop
      vertex 7 18.7 31.3
      vertex 7 12 9.5
      vertex 7 18.7 0
    endloop
  endfacet
  facet normal 1 -0 0
    outer loop
      vertex 7 -12 9.5
      vertex 7 18.7 0
      vertex 7 12 9.5
    endloop
  endfacet
  facet normal 1 0 0
    outer loop
      vertex 7 -12 9.5
      vertex 7 -18.7 0
      vertex 7 18.7 0
    endloop
  endfacet
  facet normal 1 0 0
    outer loop
      vertex 7 -18.7 0
      vertex 7 -12 9.5
      vertex 7 -18.7 31.3
    endloop
  endfacet
  facet normal 0 0 1
    outer loop
      vertex 7 18.7 31.3
      vertex 3.1 13.85 31.3
      vertex 7 12 31.3
    endloop
  endfacet
  facet normal -0 0 1
    outer loop
      vertex 0 18.7 31.3
      vertex 3.1 13.85 31.3
      vertex 7 18.7 31.3
    endloop
  endfacet
  facet normal 0 0 1
    outer loop
      vertex 3.1 13.85 31.3
      vertex 0 18.7 31.3
      vertex 1.5 13.85 31.3
    endloop
  endfacet
  facet normal 0 0 1
    outer loop
      vertex 0 13.3 31.3
      vertex 1.5 13.85 31.3
      vertex 0 18.7 31.3
    endloop
  endfacet
  facet normal 0 0 1
    outer loop
      vertex 1.5 13.85 31.3
      vertex 0 13.3 31.3
      vertex 1.5 13.3 31.3
    endloop
  endfacet
  facet normal 0 0 1
    outer loop
      vertex 7 12 31.3
      vertex 3.1 13.85 31.3
      vertex 3.1 12 31.3
    endloop
  endfacet
  facet normal 0 0 1
    outer loop
      vertex 1.5 -13.3 31.3
      vertex 0 -13.3 31.3
      vertex 1.5 -13.85 31.3
    endloop
  endfacet
  facet normal 0 0 1
    outer loop
      vertex 3.1 -13.85 31.3
      vertex 7 -12 31.3
      vertex 3.1 -12 31.3
    endloop
  endfacet
  facet normal 0 0 1
    outer loop
      vertex 7 -12 31.3
      vertex 3.1 -13.85 31.3
      vertex 7 -18.7 31.3
    endloop
  endfacet
  facet normal 0 0 1
    outer loop
      vertex 0 -18.7 31.3
      vertex 3.1 -13.85 31.3
      vertex 1.5 -13.85 31.3
    endloop
  endfacet
  facet normal 0 0 1
    outer loop
      vertex 0 -18.7 31.3
      vertex 1.5 -13.85 31.3
      vertex 0 -13.3 31.3
    endloop
  endfacet
  facet normal 0 0 1
    outer loop
      vertex 3.1 -13.85 31.3
      vertex 0 -18.7 31.3
      vertex 7 -18.7 31.3
    endloop
  endfacet
  facet normal 0 0 -1
    outer loop
      vertex 7 -18.7 0
      vertex 4.35 0 0
      vertex 7 18.7 0
    endloop
  endfacet
  facet normal 0 0 -1
    outer loop
      vertex 7 -18.7 0
      vertex 4.34591 -0.0833139 0
      vertex 4.35 0 0
    endloop
  endfacet
  facet normal 0 0 -1
    outer loop
      vertex 7 -18.7 0
      vertex 4.33367 -0.165826 0
      vertex 4.34591 -0.0833139 0
    endloop
  endfacet
  facet normal 0 0 -1
    outer loop
      vertex 7 -18.7 0
      vertex 4.3134 -0.246741 0
      vertex 4.33367 -0.165826 0
    endloop
  endfacet
  facet normal 0 0 -1
    outer loop
      vertex 7 -18.7 0
      vertex 4.2853 -0.32528 0
      vertex 4.3134 -0.246741 0
    endloop
  endfacet
  facet normal 0 0 -1
    outer loop
      vertex 7 -18.7 0
      vertex 4.24963 -0.400687 0
      vertex 4.2853 -0.32528 0
    endloop
  endfacet
  facet normal 0 0 -1
    outer loop
      vertex 7 -18.7 0
      vertex 4.20675 -0.472234 0
      vertex 4.24963 -0.400687 0
    endloop
  endfacet
  facet normal 0 0 -1
    outer loop
      vertex 7 -18.7 0
      vertex 4.15706 -0.539234 0
      vertex 4.20675 -0.472234 0
    endloop
  endfacet
  facet normal 0 0 -1
    outer loop
      vertex 7 -18.7 0
      vertex 4.10104 -0.60104 0
      vertex 4.15706 -0.539234 0
    endloop
  endfacet
  facet normal 0 0 -1
    outer loop
      vertex 7 -18.7 0
      vertex 4.03923 -0.657059 0
      vertex 4.10104 -0.60104 0
    endloop
  endfacet
  facet normal 0 0 -1
    outer loop
      vertex 7 -18.7 0
      vertex 3.97223 -0.706749 0
      vertex 4.03923 -0.657059 0
    endloop
  endfacet
  facet normal 0 0 -1
    outer loop
      vertex 7 -18.7 0
      vertex 3.90069 -0.749633 0
      vertex 3.97223 -0.706749 0
    endloop
  endfacet
  facet normal 0 0 -1
    outer loop
      vertex 7 -18.7 0
      vertex 3.82528 -0.785297 0
      vertex 3.90069 -0.749633 0
    endloop
  endfacet
  facet normal 0 0 -1
    outer loop
      vertex 7 -18.7 0
      vertex 3.74674 -0.813398 0
      vertex 3.82528 -0.785297 0
    endloop
  endfacet
  facet normal 0 0 -1
    outer loop
      vertex 7 -18.7 0
      vertex 3.66583 -0.833667 0
      vertex 3.74674 -0.813398 0
    endloop
  endfacet
  facet normal 0 0 -1
    outer loop
      vertex 7 -18.7 0
      vertex 3.58331 -0.845906 0
      vertex 3.66583 -0.833667 0
    endloop
  endfacet
  facet normal 0 0 -1
    outer loop
      vertex 7 -18.7 0
      vertex 3.5 -0.849999 0
      vertex 3.58331 -0.845906 0
    endloop
  endfacet
  facet normal 0 0 -1
    outer loop
      vertex 0 -18.7 0
      vertex 3.5 -0.849999 0
      vertex 7 -18.7 0
    endloop
  endfacet
  facet normal -0 0 -1
    outer loop
      vertex 3.5 -0.849999 0
      vertex 0 -18.7 0
      vertex 3.41669 -0.845906 0
    endloop
  endfacet
  facet normal -0 0 -1
    outer loop
      vertex 3.41669 -0.845906 0
      vertex 0 -18.7 0
      vertex 3.33417 -0.833667 0
    endloop
  endfacet
  facet normal -0 0 -1
    outer loop
      vertex 3.33417 -0.833667 0
      vertex 0 -18.7 0
      vertex 3.25326 -0.813398 0
    endloop
  endfacet
  facet normal -0 0 -1
    outer loop
      vertex 3.25326 -0.813398 0
      vertex 0 -18.7 0
      vertex 3.17472 -0.785297 0
    endloop
  endfacet
  facet normal -0 0 -1
    outer loop
      vertex 3.17472 -0.785297 0
      vertex 0 -18.7 0
      vertex 3.09931 -0.749633 0
    endloop
  endfacet
  facet normal -0 0 -1
    outer loop
      vertex 3.09931 -0.749633 0
      vertex 0 -18.7 0
      vertex 3.02777 -0.706749 0
    endloop
  endfacet
  facet normal -0 0 -1
    outer loop
      vertex 3.02777 -0.706749 0
      vertex 0 -18.7 0
      vertex 2.96076 -0.657059 0
    endloop
  endfacet
  facet normal -0 0 -1
    outer loop
      vertex 2.96076 -0.657059 0
      vertex 0 -18.7 0
      vertex 2.89896 -0.60104 0
    endloop
  endfacet
  facet normal -0 0 -1
    outer loop
      vertex 2.89896 -0.60104 0
      vertex 0 -18.7 0
      vertex 2.84294 -0.539234 0
    endloop
  endfacet
  facet normal -0 0 -1
    outer loop
      vertex 2.84294 -0.539234 0
      vertex 0 -18.7 0
      vertex 2.79325 -0.472234 0
    endloop
  endfacet
  facet normal -0 0 -1
    outer loop
      vertex 2.79325 -0.472234 0
      vertex 0 -18.7 0
      vertex 2.75037 -0.400687 0
    endloop
  endfacet
  facet normal -0 0 -1
    outer loop
      vertex 2.75037 -0.400687 0
      vertex 0 -18.7 0
      vertex 2.7147 -0.32528 0
    endloop
  endfacet
  facet normal -0 0 -1
    outer loop
      vertex 2.7147 -0.32528 0
      vertex 0 -18.7 0
      vertex 2.6866 -0.246741 0
    endloop
  endfacet
  facet normal -0 0 -1
    outer loop
      vertex 2.65409 -0.0833139 0
      vertex 0 -18.7 0
      vertex 2.65 0 0
    endloop
  endfacet
  facet normal -0 0 -1
    outer loop
      vertex 2.66633 -0.165826 0
      vertex 0 -18.7 0
      vertex 2.65409 -0.0833139 0
    endloop
  endfacet
  facet normal -0 0 -1
    outer loop
      vertex 2.6866 -0.246741 0
      vertex 0 -18.7 0
      vertex 2.66633 -0.165826 0
    endloop
  endfacet
  facet normal 0 0 -1
    outer loop
      vertex 4.34591 0.0833139 0
      vertex 7 18.7 0
      vertex 4.35 0 0
    endloop
  endfacet
  facet normal 0 0 -1
    outer loop
      vertex 4.33367 0.165826 0
      vertex 7 18.7 0
      vertex 4.34591 0.0833139 0
    endloop
  endfacet
  facet normal 0 0 -1
    outer loop
      vertex 4.3134 0.246741 0
      vertex 7 18.7 0
      vertex 4.33367 0.165826 0
    endloop
  endfacet
  facet normal 0 0 -1
    outer loop
      vertex 4.2853 0.32528 0
      vertex 7 18.7 0
      vertex 4.3134 0.246741 0
    endloop
  endfacet
  facet normal 0 0 -1
    outer loop
      vertex 4.24963 0.400687 0
      vertex 7 18.7 0
      vertex 4.2853 0.32528 0
    endloop
  endfacet
  facet normal 0 0 -1
    outer loop
      vertex 4.20675 0.472234 0
      vertex 7 18.7 0
      vertex 4.24963 0.400687 0
    endloop
  endfacet
  facet normal 0 0 -1
    outer loop
      vertex 4.15706 0.539234 0
      vertex 7 18.7 0
      vertex 4.20675 0.472234 0
    endloop
  endfacet
  facet normal 0 0 -1
    outer loop
      vertex 4.10104 0.60104 0
      vertex 7 18.7 0
      vertex 4.15706 0.539234 0
    endloop
  endfacet
  facet normal 0 0 -1
    outer loop
      vertex 4.03923 0.657059 0
      vertex 7 18.7 0
      vertex 4.10104 0.60104 0
    endloop
  endfacet
  facet normal 0 0 -1
    outer loop
      vertex 3.97223 0.706749 0
      vertex 7 18.7 0
      vertex 4.03923 0.657059 0
    endloop
  endfacet
  facet normal 0 0 -1
    outer loop
      vertex 3.90069 0.749633 0
      vertex 7 18.7 0
      vertex 3.97223 0.706749 0
    endloop
  endfacet
  facet normal 0 0 -1
    outer loop
      vertex 3.82528 0.785297 0
      vertex 7 18.7 0
      vertex 3.90069 0.749633 0
    endloop
  endfacet
  facet normal 0 0 -1
    outer loop
      vertex 3.74674 0.813398 0
      vertex 7 18.7 0
      vertex 3.82528 0.785297 0
    endloop
  endfacet
  facet normal 0 0 -1
    outer loop
      vertex 3.66583 0.833667 0
      vertex 7 18.7 0
      vertex 3.74674 0.813398 0
    endloop
  endfacet
  facet normal 0 0 -1
    outer loop
      vertex 3.58331 0.845906 0
      vertex 7 18.7 0
      vertex 3.66583 0.833667 0
    endloop
  endfacet
  facet normal 0 0 -1
    outer loop
      vertex 3.5 0.849999 0
      vertex 7 18.7 0
      vertex 3.58331 0.845906 0
    endloop
  endfacet
  facet normal 0 0 -1
    outer loop
      vertex 0 18.7 0
      vertex 3.5 0.849999 0
      vertex 3.41669 0.845906 0
    endloop
  endfacet
  facet normal 0 0 -1
    outer loop
      vertex 0 18.7 0
      vertex 3.41669 0.845906 0
      vertex 3.33417 0.833667 0
    endloop
  endfacet
  facet normal 0 0 -1
    outer loop
      vertex 0 18.7 0
      vertex 3.33417 0.833667 0
      vertex 3.25326 0.813398 0
    endloop
  endfacet
  facet normal 0 0 -1
    outer loop
      vertex 0 18.7 0
      vertex 3.25326 0.813398 0
      vertex 3.17472 0.785297 0
    endloop
  endfacet
  facet normal 0 0 -1
    outer loop
      vertex 0 18.7 0
      vertex 3.17472 0.785297 0
      vertex 3.09931 0.749633 0
    endloop
  endfacet
  facet normal 0 0 -1
    outer loop
      vertex 0 18.7 0
      vertex 3.09931 0.749633 0
      vertex 3.02777 0.706749 0
    endloop
  endfacet
  facet normal 0 0 -1
    outer loop
      vertex 0 18.7 0
      vertex 3.02777 0.706749 0
      vertex 2.96076 0.657059 0
    endloop
  endfacet
  facet normal 0 0 -1
    outer loop
      vertex 0 18.7 0
      vertex 2.96076 0.657059 0
      vertex 2.89896 0.60104 0
    endloop
  endfacet
  facet normal 0 0 -1
    outer loop
      vertex 0 18.7 0
      vertex 2.89896 0.60104 0
      vertex 2.84294 0.539234 0
    endloop
  endfacet
  facet normal 0 0 -1
    outer loop
      vertex 0 18.7 0
      vertex 2.84294 0.539234 0
      vertex 2.79325 0.472234 0
    endloop
  endfacet
  facet normal 0 0 -1
    outer loop
      vertex 0 18.7 0
      vertex 2.79325 0.472234 0
      vertex 2.75037 0.400687 0
    endloop
  endfacet
  facet normal 0 0 -1
    outer loop
      vertex 0 18.7 0
      vertex 2.75037 0.400687 0
      vertex 2.7147 0.32528 0
    endloop
  endfacet
  facet normal 0 0 -1
    outer loop
      vertex 0 18.7 0
      vertex 2.7147 0.32528 0
      vertex 2.6866 0.246741 0
    endloop
  endfacet
  facet normal 0 0 -1
    outer loop
      vertex 0 18.7 0
      vertex 2.6866 0.246741 0
      vertex 2.66633 0.165826 0
    endloop
  endfacet
  facet normal 0 0 -1
    outer loop
      vertex 0 18.7 0
      vertex 2.65 0 0
      vertex 0 -18.7 0
    endloop
  endfacet
  facet normal 0 0 -1
    outer loop
      vertex 3.5 0.849999 0
      vertex 0 18.7 0
      vertex 7 18.7 0
    endloop
  endfacet
  facet normal 0 0 -1
    outer loop
      vertex 2.65409 0.0833139 0
      vertex 0 18.7 0
      vertex 2.66633 0.165826 0
    endloop
  endfacet
  facet normal 0 0 -1
    outer loop
      vertex 2.65 0 0
      vertex 0 18.7 0
      vertex 2.65409 0.0833139 0
    endloop
  endfacet
  facet normal -1 0 0
    outer loop
      vertex 0 18.7 0
      vertex 0 13.3 10
      vertex 0 18.7 31.3
    endloop
  endfacet
  facet normal -1 0 0
    outer loop
      vertex 0 18.7 0
      vertex 0 -13.3 10
      vertex 0 13.3 10
    endloop
  endfacet
  facet normal -1 0 0
    outer loop
      vertex 0 -18.7 0
      vertex 0 -13.3 10
      vertex 0 18.7 0
    endloop
  endfacet
  facet normal -1 0 0
    outer loop
      vertex 0 -18.7 31.3
      vertex 0 -13.3 10
      vertex 0 -18.7 0
    endloop
  endfacet
  facet normal -1 0 0
    outer loop
      vertex 0 -13.3 10
      vertex 0 -18.7 31.3
      vertex 0 -13.3 31.3
    endloop
  endfacet
  facet normal -1 -0 0
    outer loop
      vertex 0 18.7 31.3
      vertex 0 13.3 10
      vertex 0 13.3 31.3
    endloop
  endfacet
  facet normal 0 1 -0
    outer loop
      vertex 7 18.7 0
      vertex 0 18.7 31.3
      vertex 7 18.7 31.3
    endloop
  endfacet
  facet normal 0 1 0
    outer loop
      vertex 0 18.7 31.3
      vertex 7 18.7 0
      vertex 0 18.7 0
    endloop
  endfacet
  facet normal 0 -1 0
    outer loop
      vertex 0 -18.7 0
      vertex 7 -18.7 31.3
      vertex 0 -18.7 31.3
    endloop
  endfacet
  facet normal 0 -1 -0
    outer loop
      vertex 7 -18.7 31.3
      vertex 0 -18.7 0
      vertex 7 -18.7 0
    endloop
  endfacet
  facet normal -1 0 0
    outer loop
      vertex 3.1 13.85 6.5
      vertex 3.1 12 9.5
      vertex 3.1 13.85 31.3
    endloop
  endfacet
  facet normal -1 0 0
    outer loop
      vertex 3.1 13.85 6.5
      vertex 3.1 -12 9.5
      vertex 3.1 12 9.5
    endloop
  endfacet
  facet normal -1 0 0
    outer loop
      vertex 3.1 -13.85 6.5
      vertex 3.1 -12 9.5
      vertex 3.1 13.85 6.5
    endloop
  endfacet
  facet normal -1 0 0
    outer loop
      vertex 3.1 -13.85 31.3
      vertex 3.1 -12 9.5
      vertex 3.1 -13.85 6.5
    endloop
  endfacet
  facet normal -1 0 0
    outer loop
      vertex 3.1 -12 9.5
      vertex 3.1 -13.85 31.3
      vertex 3.1 -12 31.3
    endloop
  endfacet
  facet normal -1 -0 0
    outer loop
      vertex 3.1 13.85 31.3
      vertex 3.1 12 9.5
      vertex 3.1 12 31.3
    endloop
  endfacet
  facet normal -0 0 1
    outer loop
      vertex 1.5 13.85 6.5
      vertex 3.1 -13.85 6.5
      vertex 3.1 13.85 6.5
    endloop
  endfacet
  facet normal 0 0 1
    outer loop
      vertex 3.1 -13.85 6.5
      vertex 1.5 13.85 6.5
      vertex 1.5 -13.85 6.5
    endloop
  endfacet
  facet normal 1 0 0
    outer loop
      vertex 1.5 -13.3 31.3
      vertex 1.5 -13.85 31.3
      vertex 1.5 -13.3 10
    endloop
  endfacet
  facet normal 1 0 0
    outer loop
      vertex 1.5 13.3 10
      vertex 1.5 13.85 31.3
      vertex 1.5 13.3 31.3
    endloop
  endfacet
  facet normal 1 0 0
    outer loop
      vertex 1.5 13.85 31.3
      vertex 1.5 13.3 10
      vertex 1.5 13.85 6.5
    endloop
  endfacet
  facet normal 1 -0 0
    outer loop
      vertex 1.5 -13.3 10
      vertex 1.5 13.85 6.5
      vertex 1.5 13.3 10
    endloop
  endfacet
  facet normal 1 0 0
    outer loop
      vertex 1.5 -13.3 10
      vertex 1.5 -13.85 6.5
      vertex 1.5 13.85 6.5
    endloop
  endfacet
  facet normal 1 0 0
    outer loop
      vertex 1.5 -13.85 6.5
      vertex 1.5 -13.3 10
      vertex 1.5 -13.85 31.3
    endloop
  endfacet
  facet normal 0 -1 0
    outer loop
      vertex 1.5 13.85 6.5
      vertex 3.1 13.85 31.3
      vertex 1.5 13.85 31.3
    endloop
  endfacet
  facet normal 0 -1 -0
    outer loop
      vertex 3.1 13.85 31.3
      vertex 1.5 13.85 6.5
      vertex 3.1 13.85 6.5
    endloop
  endfacet
  facet normal 0 1 -0
    outer loop
      vertex 3.1 -13.85 6.5
      vertex 1.5 -13.85 31.3
      vertex 3.1 -13.85 31.3
    endloop
  endfacet
  facet normal 0 1 0
    outer loop
      vertex 1.5 -13.85 31.3
      vertex 3.1 -13.85 6.5
      vertex 1.5 -13.85 6.5
    endloop
  endfacet
  facet normal -0 0 1
    outer loop
      vertex 0 13.3 10
      vertex 1.5 -13.3 10
      vertex 1.5 13.3 10
    endloop
  endfacet
  facet normal 0 0 1
    outer loop
      vertex 1.5 -13.3 10
      vertex 0 13.3 10
      vertex 0 -13.3 10
    endloop
  endfacet
  facet normal 0 -1 0
    outer loop
      vertex 0 13.3 10
      vertex 1.5 13.3 31.3
      vertex 0 13.3 31.3
    endloop
  endfacet
  facet normal 0 -1 -0
    outer loop
      vertex 1.5 13.3 31.3
      vertex 0 13.3 10
      vertex 1.5 13.3 10
    endloop
  endfacet
  facet normal 0 1 -0
    outer loop
      vertex 1.5 -13.3 10
      vertex 0 -13.3 31.3
      vertex 1.5 -13.3 31.3
    endloop
  endfacet
  facet normal 0 1 0
    outer loop
      vertex 0 -13.3 31.3
      vertex 1.5 -13.3 10
      vertex 0 -13.3 10
    endloop
  endfacet
  facet normal -0 0 1
    outer loop
      vertex 3.1 12 9.5
      vertex 7 -12 9.5
      vertex 7 12 9.5
    endloop
  endfacet
  facet normal 0 0 1
    outer loop
      vertex 7 -12 9.5
      vertex 3.1 12 9.5
      vertex 3.1 -12 9.5
    endloop
  endfacet
  facet normal 0 -1 0
    outer loop
      vertex 3.1 12 9.5
      vertex 7 12 31.3
      vertex 3.1 12 31.3
    endloop
  endfacet
  facet normal 0 -1 -0
    outer loop
      vertex 7 12 31.3
      vertex 3.1 12 9.5
      vertex 7 12 9.5
    endloop
  endfacet
  facet normal 0 1 -0
    outer loop
      vertex 7 -12 9.5
      vertex 3.1 -12 31.3
      vertex 7 -12 31.3
    endloop
  endfacet
  facet normal 0 1 0
    outer loop
      vertex 3.1 -12 31.3
      vertex 7 -12 9.5
      vertex 3.1 -12 9.5
    endloop
  endfacet
  facet normal -0.989176 -0.146736 0
    outer loop
      vertex 4.34591 0.0833139 0
      vertex 4.33367 0.165826 6.4
      vertex 4.33367 0.165826 0
    endloop
  endfacet
  facet normal -0.989176 -0.146736 0
    outer loop
      vertex 4.33367 0.165826 6.4
      vertex 4.34591 0.0833139 0
      vertex 4.34591 0.0833139 6.4
    endloop
  endfacet
  facet normal -0.998797 -0.0490324 0
    outer loop
      vertex 4.35 0 0
      vertex 4.34591 0.0833139 6.4
      vertex 4.34591 0.0833139 0
    endloop
  endfacet
  facet normal -0.998797 -0.0490324 0
    outer loop
      vertex 4.34591 0.0833139 6.4
      vertex 4.35 0 0
      vertex 4.35 0 6.4
    endloop
  endfacet
  facet normal -0.970026 -0.243001 0
    outer loop
      vertex 4.33367 0.165826 0
      vertex 4.3134 0.246741 6.4
      vertex 4.3134 0.246741 0
    endloop
  endfacet
  facet normal -0.970026 -0.243001 0
    outer loop
      vertex 4.3134 0.246741 6.4
      vertex 4.33367 0.165826 0
      vertex 4.33367 0.165826 6.4
    endloop
  endfacet
  facet normal -0.427533 0.904 0
    outer loop
      vertex 3.90069 -0.749633 0
      vertex 3.82528 -0.785297 6.4
      vertex 3.90069 -0.749633 6.4
    endloop
  endfacet
  facet normal -0.427533 0.904 0
    outer loop
      vertex 3.82528 -0.785297 6.4
      vertex 3.90069 -0.749633 0
      vertex 3.82528 -0.785297 0
    endloop
  endfacet
  facet normal 0.0490706 -0.998795 0
    outer loop
      vertex 3.41669 0.845906 0
      vertex 3.5 0.849999 6.4
      vertex 3.41669 0.845906 6.4
    endloop
  endfacet
  facet normal 0.0490706 -0.998795 0
    outer loop
      vertex 3.5 0.849999 6.4
      vertex 3.41669 0.845906 0
      vertex 3.5 0.849999 0
    endloop
  endfacet
  facet normal 0.427533 -0.904 0
    outer loop
      vertex 3.09931 0.749633 0
      vertex 3.17472 0.785297 6.4
      vertex 3.09931 0.749633 6.4
    endloop
  endfacet
  facet normal 0.427533 -0.904 0
    outer loop
      vertex 3.17472 0.785297 6.4
      vertex 3.09931 0.749633 0
      vertex 3.17472 0.785297 0
    endloop
  endfacet
  facet normal -0.740937 -0.671574 0
    outer loop
      vertex 4.15706 0.539234 0
      vertex 4.10104 0.60104 6.4
      vertex 4.10104 0.60104 0
    endloop
  endfacet
  facet normal -0.740937 -0.671574 0
    outer loop
      vertex 4.10104 0.60104 6.4
      vertex 4.15706 0.539234 0
      vertex 4.15706 0.539234 6.4
    endloop
  endfacet
  facet normal 0.146711 0.989179 -0
    outer loop
      vertex 3.41669 -0.845906 0
      vertex 3.33417 -0.833667 6.4
      vertex 3.41669 -0.845906 6.4
    endloop
  endfacet
  facet normal 0.146711 0.989179 0
    outer loop
      vertex 3.33417 -0.833667 6.4
      vertex 3.41669 -0.845906 0
      vertex 3.33417 -0.833667 0
    endloop
  endfacet
  facet normal -0.427533 -0.904 0
    outer loop
      vertex 3.82528 0.785297 0
      vertex 3.90069 0.749633 6.4
      vertex 3.82528 0.785297 6.4
    endloop
  endfacet
  facet normal -0.427533 -0.904 -0
    outer loop
      vertex 3.90069 0.749633 6.4
      vertex 3.82528 0.785297 0
      vertex 3.90069 0.749633 0
    endloop
  endfacet
  facet normal 0.146711 -0.989179 0
    outer loop
      vertex 3.33417 0.833667 0
      vertex 3.41669 0.845906 6.4
      vertex 3.33417 0.833667 6.4
    endloop
  endfacet
  facet normal 0.146711 -0.989179 0
    outer loop
      vertex 3.41669 0.845906 6.4
      vertex 3.33417 0.833667 0
      vertex 3.41669 0.845906 0
    endloop
  endfacet
  facet normal -0.243004 0.970025 0
    outer loop
      vertex 3.74674 -0.813398 0
      vertex 3.66583 -0.833667 6.4
      vertex 3.74674 -0.813398 6.4
    endloop
  endfacet
  facet normal -0.243004 0.970025 0
    outer loop
      vertex 3.66583 -0.833667 6.4
      vertex 3.74674 -0.813398 0
      vertex 3.66583 -0.833667 0
    endloop
  endfacet
  facet normal 0.595637 -0.803253 0
    outer loop
      vertex 2.96076 0.657059 0
      vertex 3.02777 0.706749 6.4
      vertex 2.96076 0.657059 6.4
    endloop
  endfacet
  facet normal 0.595637 -0.803253 0
    outer loop
      vertex 3.02777 0.706749 6.4
      vertex 2.96076 0.657059 0
      vertex 3.02777 0.706749 0
    endloop
  endfacet
  facet normal 0.903965 -0.427605 0
    outer loop
      vertex 2.7147 0.32528 6.4
      vertex 2.75037 0.400687 0
      vertex 2.75037 0.400687 6.4
    endloop
  endfacet
  facet normal 0.903965 -0.427605 0
    outer loop
      vertex 2.75037 0.400687 0
      vertex 2.7147 0.32528 6.4
      vertex 2.7147 0.32528 0
    endloop
  endfacet
  facet normal 0.427533 0.904 -0
    outer loop
      vertex 3.17472 -0.785297 0
      vertex 3.09931 -0.749633 6.4
      vertex 3.17472 -0.785297 6.4
    endloop
  endfacet
  facet normal 0.427533 0.904 0
    outer loop
      vertex 3.09931 -0.749633 6.4
      vertex 3.17472 -0.785297 0
      vertex 3.09931 -0.749633 0
    endloop
  endfacet
  facet normal 0.595637 0.803253 -0
    outer loop
      vertex 3.02777 -0.706749 0
      vertex 2.96076 -0.657059 6.4
      vertex 3.02777 -0.706749 6.4
    endloop
  endfacet
  facet normal 0.595637 0.803253 0
    outer loop
      vertex 2.96076 -0.657059 6.4
      vertex 3.02777 -0.706749 0
      vertex 2.96076 -0.657059 0
    endloop
  endfacet
  facet normal 0.903965 0.427605 0
    outer loop
      vertex 2.75037 -0.400687 6.4
      vertex 2.7147 -0.32528 0
      vertex 2.7147 -0.32528 6.4
    endloop
  endfacet
  facet normal 0.903965 0.427605 0
    outer loop
      vertex 2.7147 -0.32528 0
      vertex 2.75037 -0.400687 6.4
      vertex 2.75037 -0.400687 0
    endloop
  endfacet
  facet normal -0.514143 -0.857704 0
    outer loop
      vertex 3.90069 0.749633 0
      vertex 3.97223 0.706749 6.4
      vertex 3.90069 0.749633 6.4
    endloop
  endfacet
  facet normal -0.514143 -0.857704 -0
    outer loop
      vertex 3.97223 0.706749 6.4
      vertex 3.90069 0.749633 0
      vertex 3.97223 0.706749 0
    endloop
  endfacet
  facet normal -0.595695 0.803211 0
    outer loop
      vertex 4.03923 -0.657059 0
      vertex 3.97223 -0.706749 6.4
      vertex 4.03923 -0.657059 6.4
    endloop
  endfacet
  facet normal -0.595695 0.803211 0
    outer loop
      vertex 3.97223 -0.706749 6.4
      vertex 4.03923 -0.657059 0
      vertex 3.97223 -0.706749 0
    endloop
  endfacet
  facet normal 0.998797 0.0490324 0
    outer loop
      vertex 2.65409 -0.0833139 6.4
      vertex 2.65 0 0
      vertex 2.65 0 6.4
    endloop
  endfacet
  facet normal 0.998797 0.0490324 0
    outer loop
      vertex 2.65 0 0
      vertex 2.65409 -0.0833139 6.4
      vertex 2.65409 -0.0833139 0
    endloop
  endfacet
  facet normal 0.336879 0.941548 -0
    outer loop
      vertex 3.25326 -0.813398 0
      vertex 3.17472 -0.785297 6.4
      vertex 3.25326 -0.813398 6.4
    endloop
  endfacet
  facet normal 0.336879 0.941548 0
    outer loop
      vertex 3.17472 -0.785297 6.4
      vertex 3.25326 -0.813398 0
      vertex 3.17472 -0.785297 0
    endloop
  endfacet
  facet normal -0.595695 -0.803211 0
    outer loop
      vertex 3.97223 0.706749 0
      vertex 4.03923 0.657059 6.4
      vertex 3.97223 0.706749 6.4
    endloop
  endfacet
  facet normal -0.595695 -0.803211 -0
    outer loop
      vertex 4.03923 0.657059 6.4
      vertex 3.97223 0.706749 0
      vertex 4.03923 0.657059 0
    endloop
  endfacet
  facet normal -0.970026 0.243001 0
    outer loop
      vertex 4.3134 -0.246741 0
      vertex 4.33367 -0.165826 6.4
      vertex 4.33367 -0.165826 0
    endloop
  endfacet
  facet normal -0.970026 0.243001 0
    outer loop
      vertex 4.33367 -0.165826 6.4
      vertex 4.3134 -0.246741 0
      vertex 4.3134 -0.246741 6.4
    endloop
  endfacet
  facet normal 0.941551 0.336872 0
    outer loop
      vertex 2.7147 -0.32528 6.4
      vertex 2.6866 -0.246741 0
      vertex 2.6866 -0.246741 6.4
    endloop
  endfacet
  facet normal 0.941551 0.336872 0
    outer loop
      vertex 2.6866 -0.246741 0
      vertex 2.7147 -0.32528 6.4
      vertex 2.7147 -0.32528 0
    endloop
  endfacet
  facet normal -0.243004 -0.970025 0
    outer loop
      vertex 3.66583 0.833667 0
      vertex 3.74674 0.813398 6.4
      vertex 3.66583 0.833667 6.4
    endloop
  endfacet
  facet normal -0.243004 -0.970025 -0
    outer loop
      vertex 3.74674 0.813398 6.4
      vertex 3.66583 0.833667 0
      vertex 3.74674 0.813398 0
    endloop
  endfacet
  facet normal 0.740937 -0.671574 0
    outer loop
      vertex 2.84294 0.539234 6.4
      vertex 2.89896 0.60104 0
      vertex 2.89896 0.60104 6.4
    endloop
  endfacet
  facet normal 0.740937 -0.671574 0
    outer loop
      vertex 2.89896 0.60104 0
      vertex 2.84294 0.539234 6.4
      vertex 2.84294 0.539234 0
    endloop
  endfacet
  facet normal -0.0490706 0.998795 0
    outer loop
      vertex 3.58331 -0.845906 0
      vertex 3.5 -0.849999 6.4
      vertex 3.58331 -0.845906 6.4
    endloop
  endfacet
  facet normal -0.0490706 0.998795 0
    outer loop
      vertex 3.5 -0.849999 6.4
      vertex 3.58331 -0.845906 0
      vertex 3.5 -0.849999 0
    endloop
  endfacet
  facet normal -0.803211 -0.595695 0
    outer loop
      vertex 4.20675 0.472234 0
      vertex 4.15706 0.539234 6.4
      vertex 4.15706 0.539234 0
    endloop
  endfacet
  facet normal -0.803211 -0.595695 0
    outer loop
      vertex 4.15706 0.539234 6.4
      vertex 4.20675 0.472234 0
      vertex 4.20675 0.472234 6.4
    endloop
  endfacet
  facet normal 0.970026 0.243001 0
    outer loop
      vertex 2.6866 -0.246741 6.4
      vertex 2.66633 -0.165826 0
      vertex 2.66633 -0.165826 6.4
    endloop
  endfacet
  facet normal 0.970026 0.243001 0
    outer loop
      vertex 2.66633 -0.165826 0
      vertex 2.6866 -0.246741 6.4
      vertex 2.6866 -0.246741 0
    endloop
  endfacet
  facet normal -0.989176 0.146736 0
    outer loop
      vertex 4.33367 -0.165826 0
      vertex 4.34591 -0.0833139 6.4
      vertex 4.34591 -0.0833139 0
    endloop
  endfacet
  facet normal -0.989176 0.146736 0
    outer loop
      vertex 4.34591 -0.0833139 6.4
      vertex 4.33367 -0.165826 0
      vertex 4.33367 -0.165826 6.4
    endloop
  endfacet
  facet normal -0.514143 0.857704 0
    outer loop
      vertex 3.97223 -0.706749 0
      vertex 3.90069 -0.749633 6.4
      vertex 3.97223 -0.706749 6.4
    endloop
  endfacet
  facet normal -0.514143 0.857704 0
    outer loop
      vertex 3.90069 -0.749633 6.4
      vertex 3.97223 -0.706749 0
      vertex 3.90069 -0.749633 0
    endloop
  endfacet
  facet normal 0.941551 -0.336872 0
    outer loop
      vertex 2.6866 0.246741 6.4
      vertex 2.7147 0.32528 0
      vertex 2.7147 0.32528 6.4
    endloop
  endfacet
  facet normal 0.941551 -0.336872 0
    outer loop
      vertex 2.7147 0.32528 0
      vertex 2.6866 0.246741 6.4
      vertex 2.6866 0.246741 0
    endloop
  endfacet
  facet normal -0.671544 -0.740965 0
    outer loop
      vertex 4.03923 0.657059 0
      vertex 4.10104 0.60104 6.4
      vertex 4.03923 0.657059 6.4
    endloop
  endfacet
  facet normal -0.671544 -0.740965 -0
    outer loop
      vertex 4.10104 0.60104 6.4
      vertex 4.03923 0.657059 0
      vertex 4.10104 0.60104 0
    endloop
  endfacet
  facet normal 0.989176 -0.146736 0
    outer loop
      vertex 2.65409 0.0833139 6.4
      vertex 2.66633 0.165826 0
      vertex 2.66633 0.165826 6.4
    endloop
  endfacet
  facet normal 0.989176 -0.146736 0
    outer loop
      vertex 2.66633 0.165826 0
      vertex 2.65409 0.0833139 6.4
      vertex 2.65409 0.0833139 0
    endloop
  endfacet
  facet normal -0.903965 0.427605 0
    outer loop
      vertex 4.24963 -0.400687 0
      vertex 4.2853 -0.32528 6.4
      vertex 4.2853 -0.32528 0
    endloop
  endfacet
  facet normal -0.903965 0.427605 0
    outer loop
      vertex 4.2853 -0.32528 6.4
      vertex 4.24963 -0.400687 0
      vertex 4.24963 -0.400687 6.4
    endloop
  endfacet
  facet normal -0.336879 -0.941548 0
    outer loop
      vertex 3.74674 0.813398 0
      vertex 3.82528 0.785297 6.4
      vertex 3.74674 0.813398 6.4
    endloop
  endfacet
  facet normal -0.336879 -0.941548 -0
    outer loop
      vertex 3.82528 0.785297 6.4
      vertex 3.74674 0.813398 0
      vertex 3.82528 0.785297 0
    endloop
  endfacet
  facet normal -0.998797 0.0490324 0
    outer loop
      vertex 4.34591 -0.0833139 0
      vertex 4.35 0 6.4
      vertex 4.35 0 0
    endloop
  endfacet
  facet normal -0.998797 0.0490324 0
    outer loop
      vertex 4.35 0 6.4
      vertex 4.34591 -0.0833139 0
      vertex 4.34591 -0.0833139 6.4
    endloop
  endfacet
  facet normal -0.146711 0.989179 0
    outer loop
      vertex 3.66583 -0.833667 0
      vertex 3.58331 -0.845906 6.4
      vertex 3.66583 -0.833667 6.4
    endloop
  endfacet
  facet normal -0.146711 0.989179 0
    outer loop
      vertex 3.58331 -0.845906 6.4
      vertex 3.66583 -0.833667 0
      vertex 3.58331 -0.845906 0
    endloop
  endfacet
  facet normal -0.941551 -0.336872 0
    outer loop
      vertex 4.3134 0.246741 0
      vertex 4.2853 0.32528 6.4
      vertex 4.2853 0.32528 0
    endloop
  endfacet
  facet normal -0.941551 -0.336872 0
    outer loop
      vertex 4.2853 0.32528 6.4
      vertex 4.3134 0.246741 0
      vertex 4.3134 0.246741 6.4
    endloop
  endfacet
  facet normal -0.803211 0.595695 0
    outer loop
      vertex 4.15706 -0.539234 0
      vertex 4.20675 -0.472234 6.4
      vertex 4.20675 -0.472234 0
    endloop
  endfacet
  facet normal -0.803211 0.595695 0
    outer loop
      vertex 4.20675 -0.472234 6.4
      vertex 4.15706 -0.539234 0
      vertex 4.15706 -0.539234 6.4
    endloop
  endfacet
  facet normal -0.857748 0.514071 0
    outer loop
      vertex 4.20675 -0.472234 0
      vertex 4.24963 -0.400687 6.4
      vertex 4.24963 -0.400687 0
    endloop
  endfacet
  facet normal -0.857748 0.514071 0
    outer loop
      vertex 4.24963 -0.400687 6.4
      vertex 4.20675 -0.472234 0
      vertex 4.20675 -0.472234 6.4
    endloop
  endfacet
  facet normal 0.243004 -0.970025 0
    outer loop
      vertex 3.25326 0.813398 0
      vertex 3.33417 0.833667 6.4
      vertex 3.25326 0.813398 6.4
    endloop
  endfacet
  facet normal 0.243004 -0.970025 0
    outer loop
      vertex 3.33417 0.833667 6.4
      vertex 3.25326 0.813398 0
      vertex 3.33417 0.833667 0
    endloop
  endfacet
  facet normal -0.941551 0.336872 0
    outer loop
      vertex 4.2853 -0.32528 0
      vertex 4.3134 -0.246741 6.4
      vertex 4.3134 -0.246741 0
    endloop
  endfacet
  facet normal -0.941551 0.336872 0
    outer loop
      vertex 4.3134 -0.246741 6.4
      vertex 4.2853 -0.32528 0
      vertex 4.2853 -0.32528 6.4
    endloop
  endfacet
  facet normal -0.0490706 -0.998795 0
    outer loop
      vertex 3.5 0.849999 0
      vertex 3.58331 0.845906 6.4
      vertex 3.5 0.849999 6.4
    endloop
  endfacet
  facet normal -0.0490706 -0.998795 -0
    outer loop
      vertex 3.58331 0.845906 6.4
      vertex 3.5 0.849999 0
      vertex 3.58331 0.845906 0
    endloop
  endfacet
  facet normal 0.514143 -0.857704 0
    outer loop
      vertex 3.02777 0.706749 0
      vertex 3.09931 0.749633 6.4
      vertex 3.02777 0.706749 6.4
    endloop
  endfacet
  facet normal 0.514143 -0.857704 0
    outer loop
      vertex 3.09931 0.749633 6.4
      vertex 3.02777 0.706749 0
      vertex 3.09931 0.749633 0
    endloop
  endfacet
  facet normal -0.903965 -0.427605 0
    outer loop
      vertex 4.2853 0.32528 0
      vertex 4.24963 0.400687 6.4
      vertex 4.24963 0.400687 0
    endloop
  endfacet
  facet normal -0.903965 -0.427605 0
    outer loop
      vertex 4.24963 0.400687 6.4
      vertex 4.2853 0.32528 0
      vertex 4.2853 0.32528 6.4
    endloop
  endfacet
  facet normal -0.146711 -0.989179 0
    outer loop
      vertex 3.58331 0.845906 0
      vertex 3.66583 0.833667 6.4
      vertex 3.58331 0.845906 6.4
    endloop
  endfacet
  facet normal -0.146711 -0.989179 -0
    outer loop
      vertex 3.66583 0.833667 6.4
      vertex 3.58331 0.845906 0
      vertex 3.66583 0.833667 0
    endloop
  endfacet
  facet normal 0.243004 0.970025 -0
    outer loop
      vertex 3.33417 -0.833667 0
      vertex 3.25326 -0.813398 6.4
      vertex 3.33417 -0.833667 6.4
    endloop
  endfacet
  facet normal 0.243004 0.970025 0
    outer loop
      vertex 3.25326 -0.813398 6.4
      vertex 3.33417 -0.833667 0
      vertex 3.25326 -0.813398 0
    endloop
  endfacet
  facet normal 0.857748 0.514071 0
    outer loop
      vertex 2.79325 -0.472234 6.4
      vertex 2.75037 -0.400687 0
      vertex 2.75037 -0.400687 6.4
    endloop
  endfacet
  facet normal 0.857748 0.514071 0
    outer loop
      vertex 2.75037 -0.400687 0
      vertex 2.79325 -0.472234 6.4
      vertex 2.79325 -0.472234 0
    endloop
  endfacet
  facet normal -0.857748 -0.514071 0
    outer loop
      vertex 4.24963 0.400687 0
      vertex 4.20675 0.472234 6.4
      vertex 4.20675 0.472234 0
    endloop
  endfacet
  facet normal -0.857748 -0.514071 0
    outer loop
      vertex 4.20675 0.472234 6.4
      vertex 4.24963 0.400687 0
      vertex 4.24963 0.400687 6.4
    endloop
  endfacet
  facet normal 0.336879 -0.941548 0
    outer loop
      vertex 3.17472 0.785297 0
      vertex 3.25326 0.813398 6.4
      vertex 3.17472 0.785297 6.4
    endloop
  endfacet
  facet normal 0.336879 -0.941548 0
    outer loop
      vertex 3.25326 0.813398 6.4
      vertex 3.17472 0.785297 0
      vertex 3.25326 0.813398 0
    endloop
  endfacet
  facet normal 0.740937 0.671574 0
    outer loop
      vertex 2.89896 -0.60104 6.4
      vertex 2.84294 -0.539234 0
      vertex 2.84294 -0.539234 6.4
    endloop
  endfacet
  facet normal 0.740937 0.671574 0
    outer loop
      vertex 2.84294 -0.539234 0
      vertex 2.89896 -0.60104 6.4
      vertex 2.89896 -0.60104 0
    endloop
  endfacet
  facet normal 0.671603 -0.740911 0
    outer loop
      vertex 2.89896 0.60104 0
      vertex 2.96076 0.657059 6.4
      vertex 2.89896 0.60104 6.4
    endloop
  endfacet
  facet normal 0.671603 -0.740911 0
    outer loop
      vertex 2.96076 0.657059 6.4
      vertex 2.89896 0.60104 0
      vertex 2.96076 0.657059 0
    endloop
  endfacet
  facet normal 0.514143 0.857704 -0
    outer loop
      vertex 3.09931 -0.749633 0
      vertex 3.02777 -0.706749 6.4
      vertex 3.09931 -0.749633 6.4
    endloop
  endfacet
  facet normal 0.514143 0.857704 0
    outer loop
      vertex 3.02777 -0.706749 6.4
      vertex 3.09931 -0.749633 0
      vertex 3.02777 -0.706749 0
    endloop
  endfacet
  facet normal 0.970026 -0.243001 0
    outer loop
      vertex 2.66633 0.165826 6.4
      vertex 2.6866 0.246741 0
      vertex 2.6866 0.246741 6.4
    endloop
  endfacet
  facet normal 0.970026 -0.243001 0
    outer loop
      vertex 2.6866 0.246741 0
      vertex 2.66633 0.165826 6.4
      vertex 2.66633 0.165826 0
    endloop
  endfacet
  facet normal -0.336879 0.941548 0
    outer loop
      vertex 3.82528 -0.785297 0
      vertex 3.74674 -0.813398 6.4
      vertex 3.82528 -0.785297 6.4
    endloop
  endfacet
  facet normal -0.336879 0.941548 0
    outer loop
      vertex 3.74674 -0.813398 6.4
      vertex 3.82528 -0.785297 0
      vertex 3.74674 -0.813398 0
    endloop
  endfacet
  facet normal 0.803211 0.595695 0
    outer loop
      vertex 2.84294 -0.539234 6.4
      vertex 2.79325 -0.472234 0
      vertex 2.79325 -0.472234 6.4
    endloop
  endfacet
  facet normal 0.803211 0.595695 0
    outer loop
      vertex 2.79325 -0.472234 0
      vertex 2.84294 -0.539234 6.4
      vertex 2.84294 -0.539234 0
    endloop
  endfacet
  facet normal 0.989176 0.146736 0
    outer loop
      vertex 2.66633 -0.165826 6.4
      vertex 2.65409 -0.0833139 0
      vertex 2.65409 -0.0833139 6.4
    endloop
  endfacet
  facet normal 0.989176 0.146736 0
    outer loop
      vertex 2.65409 -0.0833139 0
      vertex 2.66633 -0.165826 6.4
      vertex 2.66633 -0.165826 0
    endloop
  endfacet
  facet normal 0.671603 0.740911 -0
    outer loop
      vertex 2.96076 -0.657059 0
      vertex 2.89896 -0.60104 6.4
      vertex 2.96076 -0.657059 6.4
    endloop
  endfacet
  facet normal 0.671603 0.740911 0
    outer loop
      vertex 2.89896 -0.60104 6.4
      vertex 2.96076 -0.657059 0
      vertex 2.89896 -0.60104 0
    endloop
  endfacet
  facet normal 0.803211 -0.595695 0
    outer loop
      vertex 2.79325 0.472234 6.4
      vertex 2.84294 0.539234 0
      vertex 2.84294 0.539234 6.4
    endloop
  endfacet
  facet normal 0.803211 -0.595695 0
    outer loop
      vertex 2.84294 0.539234 0
      vertex 2.79325 0.472234 6.4
      vertex 2.79325 0.472234 0
    endloop
  endfacet
  facet normal 0.857748 -0.514071 0
    outer loop
      vertex 2.75037 0.400687 6.4
      vertex 2.79325 0.472234 0
      vertex 2.79325 0.472234 6.4
    endloop
  endfacet
  facet normal 0.857748 -0.514071 0
    outer loop
      vertex 2.79325 0.472234 0
      vertex 2.75037 0.400687 6.4
      vertex 2.75037 0.400687 0
    endloop
  endfacet
  facet normal 0 0 -1
    outer loop
      vertex 4.34591 -0.0833139 6.4
      vertex 4.34591 0.0833139 6.4
      vertex 4.35 0 6.4
    endloop
  endfacet
  facet normal 0 0 -1
    outer loop
      vertex 4.33367 -0.165826 6.4
      vertex 4.34591 0.0833139 6.4
      vertex 4.34591 -0.0833139 6.4
    endloop
  endfacet
  facet normal 0 0 -1
    outer loop
      vertex 4.33367 -0.165826 6.4
      vertex 4.33367 0.165826 6.4
      vertex 4.34591 0.0833139 6.4
    endloop
  endfacet
  facet normal 0 0 -1
    outer loop
      vertex 4.3134 -0.246741 6.4
      vertex 4.33367 0.165826 6.4
      vertex 4.33367 -0.165826 6.4
    endloop
  endfacet
  facet normal 0 0 -1
    outer loop
      vertex 4.3134 -0.246741 6.4
      vertex 4.3134 0.246741 6.4
      vertex 4.33367 0.165826 6.4
    endloop
  endfacet
  facet normal 0 0 -1
    outer loop
      vertex 4.2853 -0.32528 6.4
      vertex 4.3134 0.246741 6.4
      vertex 4.3134 -0.246741 6.4
    endloop
  endfacet
  facet normal 0 0 -1
    outer loop
      vertex 4.2853 -0.32528 6.4
      vertex 4.2853 0.32528 6.4
      vertex 4.3134 0.246741 6.4
    endloop
  endfacet
  facet normal 0 0 -1
    outer loop
      vertex 4.24963 -0.400687 6.4
      vertex 4.2853 0.32528 6.4
      vertex 4.2853 -0.32528 6.4
    endloop
  endfacet
  facet normal 0 0 -1
    outer loop
      vertex 4.24963 -0.400687 6.4
      vertex 4.24963 0.400687 6.4
      vertex 4.2853 0.32528 6.4
    endloop
  endfacet
  facet normal 0 0 -1
    outer loop
      vertex 4.20675 -0.472234 6.4
      vertex 4.24963 0.400687 6.4
      vertex 4.24963 -0.400687 6.4
    endloop
  endfacet
  facet normal 0 0 -1
    outer loop
      vertex 4.20675 -0.472234 6.4
      vertex 4.20675 0.472234 6.4
      vertex 4.24963 0.400687 6.4
    endloop
  endfacet
  facet normal 0 0 -1
    outer loop
      vertex 4.15706 -0.539234 6.4
      vertex 4.20675 0.472234 6.4
      vertex 4.20675 -0.472234 6.4
    endloop
  endfacet
  facet normal 0 0 -1
    outer loop
      vertex 4.15706 -0.539234 6.4
      vertex 4.15706 0.539234 6.4
      vertex 4.20675 0.472234 6.4
    endloop
  endfacet
  facet normal 0 0 -1
    outer loop
      vertex 4.10104 -0.60104 6.4
      vertex 4.15706 0.539234 6.4
      vertex 4.15706 -0.539234 6.4
    endloop
  endfacet
  facet normal 0 0 -1
    outer loop
      vertex 4.10104 -0.60104 6.4
      vertex 4.10104 0.60104 6.4
      vertex 4.15706 0.539234 6.4
    endloop
  endfacet
  facet normal 0 0 -1
    outer loop
      vertex 4.03923 -0.657059 6.4
      vertex 4.10104 0.60104 6.4
      vertex 4.10104 -0.60104 6.4
    endloop
  endfacet
  facet normal 0 0 -1
    outer loop
      vertex 4.03923 -0.657059 6.4
      vertex 4.03923 0.657059 6.4
      vertex 4.10104 0.60104 6.4
    endloop
  endfacet
  facet normal 0 0 -1
    outer loop
      vertex 3.97223 -0.706749 6.4
      vertex 4.03923 0.657059 6.4
      vertex 4.03923 -0.657059 6.4
    endloop
  endfacet
  facet normal 0 0 -1
    outer loop
      vertex 3.97223 -0.706749 6.4
      vertex 3.97223 0.706749 6.4
      vertex 4.03923 0.657059 6.4
    endloop
  endfacet
  facet normal 0 0 -1
    outer loop
      vertex 3.90069 -0.749633 6.4
      vertex 3.97223 0.706749 6.4
      vertex 3.97223 -0.706749 6.4
    endloop
  endfacet
  facet normal 0 0 -1
    outer loop
      vertex 3.90069 -0.749633 6.4
      vertex 3.90069 0.749633 6.4
      vertex 3.97223 0.706749 6.4
    endloop
  endfacet
  facet normal 0 0 -1
    outer loop
      vertex 3.82528 -0.785297 6.4
      vertex 3.90069 0.749633 6.4
      vertex 3.90069 -0.749633 6.4
    endloop
  endfacet
  facet normal 0 0 -1
    outer loop
      vertex 3.82528 -0.785297 6.4
      vertex 3.82528 0.785297 6.4
      vertex 3.90069 0.749633 6.4
    endloop
  endfacet
  facet normal 0 0 -1
    outer loop
      vertex 3.74674 -0.813398 6.4
      vertex 3.82528 0.785297 6.4
      vertex 3.82528 -0.785297 6.4
    endloop
  endfacet
  facet normal 0 0 -1
    outer loop
      vertex 3.74674 -0.813398 6.4
      vertex 3.74674 0.813398 6.4
      vertex 3.82528 0.785297 6.4
    endloop
  endfacet
  facet normal 0 0 -1
    outer loop
      vertex 3.66583 -0.833667 6.4
      vertex 3.74674 0.813398 6.4
      vertex 3.74674 -0.813398 6.4
    endloop
  endfacet
  facet normal 0 0 -1
    outer loop
      vertex 3.66583 -0.833667 6.4
      vertex 3.66583 0.833667 6.4
      vertex 3.74674 0.813398 6.4
    endloop
  endfacet
  facet normal 0 0 -1
    outer loop
      vertex 3.58331 -0.845906 6.4
      vertex 3.66583 0.833667 6.4
      vertex 3.66583 -0.833667 6.4
    endloop
  endfacet
  facet normal 0 0 -1
    outer loop
      vertex 3.58331 -0.845906 6.4
      vertex 3.58331 0.845906 6.4
      vertex 3.66583 0.833667 6.4
    endloop
  endfacet
  facet normal 0 0 -1
    outer loop
      vertex 3.5 -0.849999 6.4
      vertex 3.58331 0.845906 6.4
      vertex 3.58331 -0.845906 6.4
    endloop
  endfacet
  facet normal 0 0 -1
    outer loop
      vertex 3.5 -0.849999 6.4
      vertex 3.5 0.849999 6.4
      vertex 3.58331 0.845906 6.4
    endloop
  endfacet
  facet normal 0 0 -1
    outer loop
      vertex 3.41669 -0.845906 6.4
      vertex 3.5 0.849999 6.4
      vertex 3.5 -0.849999 6.4
    endloop
  endfacet
  facet normal 0 0 -1
    outer loop
      vertex 3.41669 -0.845906 6.4
      vertex 3.41669 0.845906 6.4
      vertex 3.5 0.849999 6.4
    endloop
  endfacet
  facet normal 0 0 -1
    outer loop
      vertex 3.33417 -0.833667 6.4
      vertex 3.41669 0.845906 6.4
      vertex 3.41669 -0.845906 6.4
    endloop
  endfacet
  facet normal 0 0 -1
    outer loop
      vertex 3.33417 -0.833667 6.4
      vertex 3.33417 0.833667 6.4
      vertex 3.41669 0.845906 6.4
    endloop
  endfacet
  facet normal 0 0 -1
    outer loop
      vertex 3.25326 -0.813398 6.4
      vertex 3.33417 0.833667 6.4
      vertex 3.33417 -0.833667 6.4
    endloop
  endfacet
  facet normal 0 0 -1
    outer loop
      vertex 3.25326 -0.813398 6.4
      vertex 3.25326 0.813398 6.4
      vertex 3.33417 0.833667 6.4
    endloop
  endfacet
  facet normal 0 0 -1
    outer loop
      vertex 3.17472 -0.785297 6.4
      vertex 3.25326 0.813398 6.4
      vertex 3.25326 -0.813398 6.4
    endloop
  endfacet
  facet normal 0 0 -1
    outer loop
      vertex 3.17472 -0.785297 6.4
      vertex 3.17472 0.785297 6.4
      vertex 3.25326 0.813398 6.4
    endloop
  endfacet
  facet normal 0 0 -1
    outer loop
      vertex 3.09931 -0.749633 6.4
      vertex 3.17472 0.785297 6.4
      vertex 3.17472 -0.785297 6.4
    endloop
  endfacet
  facet normal 0 0 -1
    outer loop
      vertex 3.09931 -0.749633 6.4
      vertex 3.09931 0.749633 6.4
      vertex 3.17472 0.785297 6.4
    endloop
  endfacet
  facet normal 0 0 -1
    outer loop
      vertex 3.02777 -0.706749 6.4
      vertex 3.09931 0.749633 6.4
      vertex 3.09931 -0.749633 6.4
    endloop
  endfacet
  facet normal 0 0 -1
    outer loop
      vertex 3.02777 -0.706749 6.4
      vertex 3.02777 0.706749 6.4
      vertex 3.09931 0.749633 6.4
    endloop
  endfacet
  facet normal 0 0 -1
    outer loop
      vertex 2.96076 -0.657059 6.4
      vertex 3.02777 0.706749 6.4
      vertex 3.02777 -0.706749 6.4
    endloop
  endfacet
  facet normal 0 0 -1
    outer loop
      vertex 2.96076 -0.657059 6.4
      vertex 2.96076 0.657059 6.4
      vertex 3.02777 0.706749 6.4
    endloop
  endfacet
  facet normal 0 0 -1
    outer loop
      vertex 2.89896 -0.60104 6.4
      vertex 2.96076 0.657059 6.4
      vertex 2.96076 -0.657059 6.4
    endloop
  endfacet
  facet normal 0 0 -1
    outer loop
      vertex 2.89896 -0.60104 6.4
      vertex 2.89896 0.60104 6.4
      vertex 2.96076 0.657059 6.4
    endloop
  endfacet
  facet normal 0 0 -1
    outer loop
      vertex 2.84294 -0.539234 6.4
      vertex 2.89896 0.60104 6.4
      vertex 2.89896 -0.60104 6.4
    endloop
  endfacet
  facet normal 0 0 -1
    outer loop
      vertex 2.84294 -0.539234 6.4
      vertex 2.84294 0.539234 6.4
      vertex 2.89896 0.60104 6.4
    endloop
  endfacet
  facet normal 0 0 -1
    outer loop
      vertex 2.79325 -0.472234 6.4
      vertex 2.84294 0.539234 6.4
      vertex 2.84294 -0.539234 6.4
    endloop
  endfacet
  facet normal 0 0 -1
    outer loop
      vertex 2.79325 -0.472234 6.4
      vertex 2.79325 0.472234 6.4
      vertex 2.84294 0.539234 6.4
    endloop
  endfacet
  facet normal 0 0 -1
    outer loop
      vertex 2.75037 -0.400687 6.4
      vertex 2.79325 0.472234 6.4
      vertex 2.79325 -0.472234 6.4
    endloop
  endfacet
  facet normal 0 0 -1
    outer loop
      vertex 2.75037 -0.400687 6.4
      vertex 2.75037 0.400687 6.4
      vertex 2.79325 0.472234 6.4
    endloop
  endfacet
  facet normal 0 0 -1
    outer loop
      vertex 2.7147 -0.32528 6.4
      vertex 2.75037 0.400687 6.4
      vertex 2.75037 -0.400687 6.4
    endloop
  endfacet
  facet normal 0 0 -1
    outer loop
      vertex 2.7147 -0.32528 6.4
      vertex 2.7147 0.32528 6.4
      vertex 2.75037 0.400687 6.4
    endloop
  endfacet
  facet normal 0 0 -1
    outer loop
      vertex 2.6866 -0.246741 6.4
      vertex 2.7147 0.32528 6.4
      vertex 2.7147 -0.32528 6.4
    endloop
  endfacet
  facet normal 0 0 -1
    outer loop
      vertex 2.6866 -0.246741 6.4
      vertex 2.6866 0.246741 6.4
      vertex 2.7147 0.32528 6.4
    endloop
  endfacet
  facet normal 0 0 -1
    outer loop
      vertex 2.66633 -0.165826 6.4
      vertex 2.6866 0.246741 6.4
      vertex 2.6866 -0.246741 6.4
    endloop
  endfacet
  facet normal 0 0 -1
    outer loop
      vertex 2.66633 -0.165826 6.4
      vertex 2.66633 0.165826 6.4
      vertex 2.6866 0.246741 6.4
    endloop
  endfacet
  facet normal 0 0 -1
    outer loop
      vertex 2.65409 -0.0833139 6.4
      vertex 2.66633 0.165826 6.4
      vertex 2.66633 -0.165826 6.4
    endloop
  endfacet
  facet normal 0 0 -1
    outer loop
      vertex 2.65409 -0.0833139 6.4
      vertex 2.65409 0.0833139 6.4
      vertex 2.66633 0.165826 6.4
    endloop
  endfacet
  facet normal 0 -0 -1
    outer loop
      vertex 2.65409 0.0833139 6.4
      vertex 2.65409 -0.0833139 6.4
      vertex 2.65 0 6.4
    endloop
  endfacet
  facet normal 0.0490706 0.998795 -0
    outer loop
      vertex 3.5 -0.849999 0
      vertex 3.41669 -0.845906 6.4
      vertex 3.5 -0.849999 6.4
    endloop
  endfacet
  facet normal 0.0490706 0.998795 0
    outer loop
      vertex 3.41669 -0.845906 6.4
      vertex 3.5 -0.849999 0
      vertex 3.41669 -0.845906 0
    endloop
  endfacet
  facet normal 0.998797 -0.0490324 0
    outer loop
      vertex 2.65 0 6.4
      vertex 2.65409 0.0833139 0
      vertex 2.65409 0.0833139 6.4
    endloop
  endfacet
  facet normal 0.998797 -0.0490324 0
    outer loop
      vertex 2.65409 0.0833139 0
      vertex 2.65 0 6.4
      vertex 2.65 0 0
    endloop
  endfacet
  facet normal -0.740937 0.671574 0
    outer loop
      vertex 4.10104 -0.60104 0
      vertex 4.15706 -0.539234 6.4
      vertex 4.15706 -0.539234 0
    endloop
  endfacet
  facet normal -0.740937 0.671574 0
    outer loop
      vertex 4.15706 -0.539234 6.4
      vertex 4.10104 -0.60104 0
      vertex 4.10104 -0.60104 6.4
    endloop
  endfacet
  facet normal -0.671544 0.740965 0
    outer loop
      vertex 4.10104 -0.60104 0
      vertex 4.03923 -0.657059 6.4
      vertex 4.10104 -0.60104 6.4
    endloop
  endfacet
  facet normal -0.671544 0.740965 0
    outer loop
      vertex 4.03923 -0.657059 6.4
      vertex 4.10104 -0.60104 0
      vertex 4.03923 -0.657059 0
    endloop
  endfacet
endsolid OpenSCAD_Model
